<svg width="78" height="24" viewBox="0 0 78 24" fill="none" xmlns="http://www.w3.org/2000/svg">
    <path d="M34.372 17.2353C32.861 20.864 29.7646 23.3055 25.2145 23.3055H16.6787L18.451 19.0497H27.3169C28.2894 19.0497 28.7295 18.6462 28.9344 18.1541H24.5793C20.03 18.1541 18.9565 15.735 20.4675 12.1064C21.8569 8.76846 25.066 6.05859 29.6152 6.05859H39.0259L34.372 17.2353ZM26.5457 13.8983H30.7067L32.1989 10.3144H28.038C26.7157 10.3144 25.8774 11.3003 25.5419 12.1064C25.2064 12.9124 25.2234 13.8983 26.5457 13.8983Z" fill="white"/>
    <path d="M46.7758 6.05859H51.2088C55.758 6.05859 56.7108 8.76846 55.3206 12.1064C53.8095 15.735 50.7221 18.1541 46.1729 18.1541H41.7399C37.1907 18.1541 36.1171 15.735 37.6282 12.1064C39.0175 8.76846 42.2266 6.05859 46.7758 6.05859ZM42.7026 12.1064C42.3671 12.9124 42.3841 13.8983 43.7063 13.8983H47.7501C49.0724 13.8983 49.9107 12.9124 50.2462 12.1064C50.5817 11.3003 50.5647 10.3144 49.2424 10.3144H45.1986C43.8763 10.3144 43.038 11.3003 42.7026 12.1064Z" fill="white"/>
    <path d="M66.0476 1.35352L58.9799 18.1522H53.9243L60.992 1.35352H66.0476Z" fill="white"/>
    <path d="M78.0002 1.35441L76.4149 5.162H71.9819C71.107 5.162 70.5263 5.29619 70.2553 5.9457L70.2087 6.05753H76.0418L74.2695 10.3133H68.4365L65.1728 18.1531H60.1172L64.594 7.40128C66.105 3.77262 69.1924 1.35352 73.7417 1.35352H77.9993L78.0002 1.35441Z" fill="white"/>
    <path d="M22.1647 0L14.5433 18.1531H7.60176L0 0H6.41636L11.0631 11.132L15.7483 0H22.1647Z" fill="white"/>
</svg>
