<svg width="34" height="34" viewBox="0 0 34 34" fill="none" xmlns="http://www.w3.org/2000/svg">
    <path d="M15.4259 27.119H20.2407C20.2407 28.4286 19.1574 29.5 17.8333 29.5C16.5093 29.5 15.4259 28.4286 15.4259 27.119ZM28.6667 24.7381V25.9286H7V24.7381L9.40741 22.3571V15.2143C9.40741 11.5238 11.8148 8.30952 15.4259 7.2381V6.88095C15.4259 5.57143 16.5093 4.5 17.8333 4.5C19.1574 4.5 20.2407 5.57143 20.2407 6.88095V7.2381C23.8519 8.30952 26.2593 11.5238 26.2593 15.2143V22.3571L28.6667 24.7381ZM23.8519 15.2143C23.8519 11.881 21.2037 9.2619 17.8333 9.2619C14.463 9.2619 11.8148 11.881 11.8148 15.2143V23.5476H23.8519V15.2143Z" fill="#666666"/>
</svg>
