<svg width="34" height="34" viewBox="0 0 34 34" fill="none" xmlns="http://www.w3.org/2000/svg">
    <path fill-rule="evenodd" clip-rule="evenodd" d="M19.7776 5.7588C19.8994 5.9954 19.9302 6.2992 19.9904 6.9068C20.1052 8.0548 20.1626 8.6288 20.4034 8.9452C20.5534 9.14165 20.7528 9.29488 20.9812 9.3893C21.2097 9.48373 21.459 9.51599 21.704 9.4828C22.096 9.431 22.544 9.0656 23.4372 8.3348C23.909 7.947 24.1456 7.7538 24.399 7.6726C24.7217 7.56947 25.0709 7.58688 25.3818 7.7216C25.6268 7.828 25.8438 8.0436 26.2736 8.4748L27.5252 9.7264C27.9564 10.1576 28.172 10.3732 28.2784 10.6182C28.4131 10.9291 28.4305 11.2783 28.3274 11.601C28.2462 11.8544 28.053 12.091 27.6666 12.5628C26.9344 13.4574 26.569 13.904 26.5158 14.2974C26.483 14.5423 26.5156 14.7914 26.6103 15.0196C26.705 15.2478 26.8583 15.4469 27.0548 15.5966C27.3698 15.8374 27.9452 15.8948 29.0946 16.0096C29.7008 16.0698 30.0046 16.1006 30.2426 16.2224C30.5428 16.3781 30.7766 16.6372 30.9006 16.9518C31 17.1996 31 17.5048 31 18.1152V19.8848C31 20.4952 31 20.8004 30.902 21.0468C30.7776 21.3624 30.5427 21.6221 30.2412 21.7776C30.0046 21.8994 29.7008 21.9302 29.0932 21.9904C27.9452 22.1052 27.3712 22.1626 27.0548 22.4034C26.8583 22.5534 26.7051 22.7528 26.6107 22.9812C26.5163 23.2097 26.484 23.459 26.5172 23.704C26.5704 24.096 26.9358 24.544 27.6666 25.4372C28.053 25.909 28.2462 26.1442 28.3274 26.399C28.4305 26.7217 28.4131 27.0709 28.2784 27.3818C28.172 27.6268 27.9564 27.8424 27.5252 28.2736L26.2736 29.5238C25.8424 29.9564 25.6268 30.172 25.3818 30.277C25.0709 30.4117 24.7217 30.4291 24.399 30.326C24.1456 30.2448 23.909 30.0516 23.4372 29.6652C22.5426 28.9344 22.096 28.569 21.704 28.5172C21.459 28.484 21.2097 28.5163 20.9812 28.6107C20.7528 28.7051 20.5534 28.8583 20.4034 29.0548C20.1626 29.3698 20.1052 29.9438 19.9904 31.0932C19.9302 31.7008 19.8994 32.0046 19.7776 32.2412C19.6225 32.5425 19.3633 32.7773 19.0482 32.902C18.8004 33 18.4952 33 17.8848 33H16.1152C15.5048 33 15.1996 33 14.9532 32.902C14.6376 32.7776 14.3779 32.5427 14.2224 32.2412C14.1006 32.0046 14.0698 31.7008 14.0096 31.0932C13.8948 29.9452 13.8374 29.3712 13.5966 29.0548C13.4467 28.8586 13.2476 28.7055 13.0194 28.6111C12.7912 28.5167 12.5421 28.4843 12.2974 28.5172C11.904 28.569 11.4574 28.9344 10.5628 29.6652C10.091 30.053 9.8544 30.2462 9.601 30.3274C9.27826 30.4305 8.92908 30.4131 8.6182 30.2784C8.3732 30.172 8.1562 29.9564 7.7264 29.5252L6.4748 28.2736C6.0436 27.8424 5.828 27.6268 5.7216 27.3818C5.58688 27.0709 5.56947 26.7217 5.6726 26.399C5.7538 26.1456 5.947 25.909 6.3334 25.4372C7.0656 24.5426 7.431 24.096 7.4828 23.7026C7.51573 23.4579 7.48334 23.2088 7.38893 22.9806C7.29451 22.7524 7.14143 22.5533 6.9452 22.4034C6.6302 22.1626 6.0548 22.1052 4.9054 21.9904C4.2992 21.9302 3.9954 21.8994 3.7574 21.7776C3.45717 21.6219 3.22343 21.3628 3.0994 21.0482C3 20.8004 3 20.4952 3 19.8848V18.1152C3 17.5048 3 17.1996 3.098 16.9532C3.22244 16.6376 3.45726 16.3779 3.7588 16.2224C3.9954 16.1006 4.2992 16.0698 4.9068 16.0096C6.0548 15.8948 6.6302 15.8374 6.9452 15.5966C7.14168 15.4469 7.29504 15.2478 7.3897 15.0196C7.48437 14.7914 7.51697 14.5423 7.4842 14.2974C7.431 13.904 7.0642 13.4574 6.3334 12.5614C5.947 12.0896 5.7538 11.8544 5.6726 11.5996C5.56947 11.2769 5.58688 10.9277 5.7216 10.6168C5.828 10.3732 6.0436 10.1562 6.4748 9.725L7.7264 8.4748C8.1576 8.0436 8.3732 7.8266 8.6182 7.7216C8.92908 7.58688 9.27826 7.56947 9.601 7.6726C9.8544 7.7538 10.091 7.947 10.5628 8.3334C11.4574 9.0642 11.904 9.4296 12.296 9.4828C12.5413 9.51609 12.791 9.48374 13.0198 9.38905C13.2485 9.29437 13.448 9.14073 13.598 8.9438C13.836 8.6288 13.8948 8.0548 14.0096 6.9054C14.0698 6.2992 14.1006 5.9954 14.2224 5.7574C14.3778 5.45664 14.6369 5.22238 14.9518 5.098C15.1996 5 15.5048 5 16.1152 5H17.8848C18.4952 5 18.8004 5 19.0468 5.098C19.3624 5.22244 19.6221 5.45726 19.7776 5.7588ZM17 24.6C18.4852 24.6 19.9096 24.01 20.9598 22.9598C22.01 21.9096 22.6 20.4852 22.6 19C22.6 17.5148 22.01 16.0904 20.9598 15.0402C19.9096 13.99 18.4852 13.4 17 13.4C15.5148 13.4 14.0904 13.99 13.0402 15.0402C11.99 16.0904 11.4 17.5148 11.4 19C11.4 20.4852 11.99 21.9096 13.0402 22.9598C14.0904 24.01 15.5148 24.6 17 24.6Z" fill="#666666"/>
</svg>
