<svg width="2460" height="36" viewBox="0 0 2460 36" fill="none" xmlns="http://www.w3.org/2000/svg">
    <mask id="path-1-inside-1_1798_44216" fill="white">
        <path d="M2463 18.7275H1339.5L1318.83 33.3311C1316.39 35.0555 1313.31 36 1310.13 36H1152.87C1149.69 35.9999 1146.61 35.0554 1144.17 33.3311L1123.5 18.7275H0V-2H2463V18.7275Z"/>
    </mask>
    <path d="M2463 18.7275H1339.5L1318.83 33.3311C1316.39 35.0555 1313.31 36 1310.13 36H1152.87C1149.69 35.9999 1146.61 35.0554 1144.17 33.3311L1123.5 18.7275H0V-2H2463V18.7275Z" fill="#F3F3F3"/>
    <path d="M2463 18.7275V19.7275H2464V18.7275H2463ZM1339.5 18.7275V17.7275H1339.19L1338.93 17.9107L1339.5 18.7275ZM1318.83 33.3311L1318.25 32.5143V32.5143L1318.83 33.3311ZM1310.13 36V37V36ZM1152.87 36V37V36ZM1144.17 33.3311L1143.6 34.1479L1144.17 33.3311ZM1123.5 18.7275L1124.07 17.9107L1123.81 17.7275H1123.5V18.7275ZM0 18.7275H-1V19.7275H0V18.7275ZM0 -2V-3H-1V-2H0ZM2463 -2H2464V-3H2463V-2ZM2463 18.7275V17.7275H1339.5V18.7275V19.7275H2463V18.7275ZM1339.5 18.7275L1338.93 17.9107L1318.25 32.5143L1318.83 33.3311L1319.41 34.1478L1340.08 19.5443L1339.5 18.7275ZM1318.83 33.3311L1318.25 32.5143C1315.99 34.1118 1313.12 35 1310.13 35V36V37C1313.5 37 1316.78 35.9993 1319.41 34.1478L1318.83 33.3311ZM1310.13 36V35H1152.87V36V37H1310.13V36ZM1152.87 36V35C1149.88 34.9999 1147.01 34.1117 1144.75 32.5143L1144.17 33.3311L1143.6 34.1479C1146.22 35.9991 1149.5 36.9999 1152.87 37V36ZM1144.17 33.3311L1144.75 32.5143L1124.07 17.9107L1123.5 18.7275L1122.92 19.5443L1143.6 34.1479L1144.17 33.3311ZM1123.5 18.7275V17.7275H0V18.7275V19.7275H1123.5V18.7275ZM0 18.7275H1V-2H0H-1V18.7275H0ZM0 -2V-1H2463V-2V-3H0V-2ZM2463 -2H2462V18.7275H2463H2464V-2H2463Z" fill="#D9D9D9" mask="url(#path-1-inside-1_1798_44216)"/>
</svg>
