<svg width="20" height="20" viewBox="0 0 20 20" fill="none" xmlns="http://www.w3.org/2000/svg">
    <rect width="20" height="20" rx="5" fill="#0038FF"/>
    <path d="M9.85219 15.4785C9.15804 15.4786 8.47028 15.3458 7.8261 15.0872C7.17903 14.8337 6.58811 14.4555 6.08698 13.9741L7.26958 12.5567C7.637 12.8971 8.05688 13.176 8.51306 13.3828C8.94182 13.5842 9.40893 13.691 9.88263 13.6958C10.3156 13.727 10.7468 13.6138 11.1087 13.3741C11.2474 13.2764 11.3598 13.1458 11.4356 12.9941C11.5115 12.8423 11.5486 12.6741 11.5435 12.5045C11.5488 12.3352 11.5099 12.1673 11.4305 12.0176C11.3505 11.8818 11.244 11.7635 11.1174 11.6698C10.9664 11.5585 10.803 11.4652 10.6305 11.3915L10 11.1132L8.62176 10.5306C8.35527 10.4152 8.09925 10.277 7.85654 10.1176C7.60638 9.95847 7.38081 9.76367 7.18697 9.53933C6.98718 9.30861 6.82837 9.04538 6.71741 8.76106C6.59156 8.44293 6.52951 8.10315 6.5348 7.76107C6.53204 7.35321 6.62276 6.95014 6.80002 6.5828C6.97461 6.21935 7.22518 5.89762 7.5348 5.63933C7.87016 5.36327 8.25332 5.15106 8.66524 5.01324C9.12562 4.85624 9.60927 4.77832 10.0957 4.78281C10.699 4.78092 11.297 4.89609 11.8565 5.12194C12.4085 5.34538 12.9087 5.67983 13.3261 6.10455L12.2826 7.4089C11.9761 7.15134 11.6333 6.94038 11.2652 6.78281C10.8944 6.63003 10.4967 6.55314 10.0957 6.55671C9.71365 6.53661 9.33497 6.63698 9.01307 6.84367C8.88346 6.93189 8.77837 7.05157 8.70765 7.19149C8.63693 7.33141 8.60289 7.487 8.60871 7.64367C8.60466 7.80694 8.65013 7.96761 8.73915 8.10454C8.83351 8.24022 8.9513 8.35801 9.08698 8.45237C9.24721 8.56247 9.41754 8.6571 9.59567 8.73498C9.79132 8.82628 10 8.90889 10.2218 8.9915L11.5696 9.56541C12.1506 9.78031 12.6712 10.1323 13.087 10.5915C13.483 11.0932 13.6811 11.7229 13.6435 12.3611C13.6441 12.7733 13.5566 13.181 13.387 13.5567C13.215 13.939 12.9612 14.2789 12.6435 14.5524C12.2926 14.8503 11.8883 15.079 11.4522 15.2263C10.9371 15.4007 10.396 15.486 9.85219 15.4785Z"
          fill="white"/>
</svg>
