<svg width="20" height="20" viewBox="0 0 20 20" fill="none" xmlns="http://www.w3.org/2000/svg">
    <rect width="20" height="20" rx="5" fill="#5C5C82"/>
    <path d="M10.1391 6.29693H9.39564C9.36297 6.06328 9.36297 5.82623 9.39564 5.59258C9.42258 5.42875 9.47541 5.27024 9.55215 5.12301C9.61391 5.00237 9.69631 4.89348 9.79563 4.80127C9.88694 4.71866 9.97826 4.63605 10.0609 4.55344C10.1423 4.47668 10.2125 4.38888 10.2696 4.29258C10.3287 4.18652 10.3573 4.0661 10.3522 3.94475C10.3604 3.79039 10.3176 3.63761 10.2304 3.50997C10.185 3.44832 10.1241 3.39977 10.0538 3.36923C9.98357 3.33869 9.90651 3.32724 9.83042 3.33606C9.7489 3.33507 9.66807 3.35119 9.59318 3.3834C9.51829 3.4156 9.451 3.46316 9.39564 3.52301C9.2632 3.68829 9.19112 3.89382 9.1913 4.10562H8.37823C8.38681 3.85484 8.44442 3.60818 8.54781 3.37954C8.63413 3.19962 8.75705 3.03969 8.90868 2.90997C9.04435 2.79616 9.20307 2.7131 9.3739 2.66649C9.53527 2.62247 9.70243 2.60341 9.86956 2.60996C10.0535 2.61737 10.2353 2.65256 10.4087 2.71432C10.5687 2.76705 10.7166 2.85132 10.8435 2.96215C10.9662 3.06864 11.0642 3.20071 11.1304 3.3491C11.2024 3.51345 11.238 3.69144 11.2348 3.87084C11.2408 4.06373 11.2082 4.25588 11.1391 4.43606C11.0827 4.56822 11.0048 4.69014 10.9087 4.79692C10.819 4.89056 10.7216 4.97639 10.6174 5.05345C10.5147 5.12936 10.4226 5.21854 10.3435 5.31866C10.2577 5.42893 10.1969 5.55651 10.1652 5.69258C10.1192 5.89068 10.1104 6.0956 10.1391 6.29693ZM10.2435 6.83171V7.7578H9.2913V6.83171H10.2435Z"
          fill="white"/>
    <path d="M11.2478 12.6839C11.5815 12.457 11.8337 12.1291 11.9674 11.7484C12.101 11.3676 12.1091 10.9541 11.9904 10.5684C11.8717 10.1827 11.6326 9.84524 11.308 9.60551C10.9834 9.36578 10.5905 9.23642 10.1869 9.23642C9.78341 9.23642 9.39051 9.36578 9.06591 9.60551C8.74131 9.84524 8.50211 10.1827 8.38343 10.5684C8.26475 10.9541 8.27283 11.3676 8.40649 11.7484C8.54015 12.1291 8.79235 12.457 9.12607 12.6839C8.70508 12.8579 8.33224 13.1308 8.03911 13.4795C7.60463 13.9871 7.36565 14.6331 7.3652 15.3013V15.9491H13.0174V15.3013C13.0185 14.6232 12.7728 13.9679 12.3261 13.4578C12.0329 13.1181 11.6634 12.8529 11.2478 12.6839Z"
          fill="white"/>
    <path d="M15.5087 12.6839C15.7634 12.5106 15.9718 12.2776 16.1157 12.0052C16.2596 11.7329 16.3346 11.4294 16.3342 11.1214C16.3339 10.8133 16.2581 10.51 16.1135 10.238C15.9689 9.96601 15.7599 9.73355 15.5048 9.56091C15.2496 9.38828 14.9561 9.28072 14.6498 9.24766C14.3436 9.21459 14.0339 9.25701 13.7478 9.37121C13.4617 9.48541 13.2079 9.66793 13.0086 9.9028C12.8093 10.1377 12.6705 10.4178 12.6043 10.7187C12.5729 10.8512 12.5569 10.9868 12.5565 11.123C12.559 11.259 12.5751 11.3945 12.6043 11.5273C12.7077 11.9987 12.9878 12.4126 13.3869 12.6839C13.1527 12.7829 12.932 12.9115 12.7304 13.0665C13.2757 13.683 13.5759 14.4782 13.5739 15.3013V15.9491H17.2695V15.3013C17.2689 14.7395 17.1011 14.1906 16.7876 13.7245C16.474 13.2584 16.0288 12.8962 15.5087 12.6839Z"
          fill="white"/>
    <path d="M6.95218 12.6839C7.16633 12.5369 7.34815 12.3477 7.48647 12.1279C7.6248 11.9081 7.7167 11.6623 7.75651 11.4056C7.76315 11.3115 7.76315 11.2171 7.75651 11.123C7.7543 11.0283 7.74558 10.9339 7.73043 10.8404C7.68397 10.5301 7.56088 10.2363 7.37228 9.98556C7.18369 9.73482 6.93555 9.53506 6.65032 9.40436C6.36508 9.27367 6.05175 9.21615 5.73869 9.23703C5.42563 9.25792 5.12272 9.35653 4.85737 9.52395C4.59202 9.69137 4.37262 9.92232 4.219 10.1959C4.06537 10.4695 3.98237 10.777 3.97754 11.0907C3.9727 11.4045 4.0462 11.7144 4.19132 11.9926C4.33644 12.2708 4.54864 12.5084 4.8087 12.6839C4.28914 12.8949 3.84398 13.2556 3.5297 13.72C3.21542 14.1845 3.04619 14.7318 3.04349 15.2926V15.9404H6.78696V15.2926C6.78573 14.4767 7.07908 13.6878 7.61305 13.0708C7.41131 12.9125 7.18898 12.7823 6.95218 12.6839Z"
          fill="white"/>
</svg>
