<svg width="20" height="20" viewBox="0 0 20 20" fill="none" xmlns="http://www.w3.org/2000/svg">
    <rect width="20" height="20" rx="5" fill="#A118C4"/>
    <path d="M4.88495 16.9999V6.81812H11.6264V8.59297H7.03765V11.0191H11.179V12.794H7.03765V16.9999H4.88495Z"
          fill="white"/>
    <path d="M17 8H14.1034V7.08451L15.3384 5.76761C15.5625 5.52817 15.7198 5.32394 15.8103 5.15493C15.9052 4.98122 15.9526 4.79812 15.9526 4.60563V4.38028C15.9526 4.22066 15.9052 4.09155 15.8103 3.99296C15.7198 3.89437 15.5927 3.84507 15.4289 3.84507C15.3341 3.84507 15.25 3.8662 15.1767 3.90845C15.1078 3.94601 15.0474 3.99765 14.9957 4.06338C14.9483 4.12911 14.9073 4.20657 14.8728 4.29577C14.8427 4.38028 14.819 4.47183 14.8017 4.57042L14 4.23944C14.0431 4.07042 14.1013 3.9108 14.1746 3.76056C14.2522 3.61033 14.3491 3.47887 14.4655 3.3662C14.5862 3.25352 14.7306 3.16432 14.8987 3.09859C15.0711 3.03286 15.2759 3 15.5129 3C15.7716 3 15.9892 3.03286 16.1659 3.09859C16.347 3.16432 16.4935 3.25822 16.6056 3.38028C16.7177 3.49765 16.7974 3.64554 16.8448 3.82394C16.8966 3.99765 16.9224 4.19249 16.9224 4.40845C16.9224 4.57746 16.9073 4.73239 16.8772 4.87324C16.847 5.01408 16.7953 5.15493 16.722 5.29577C16.6487 5.43193 16.5496 5.57746 16.4246 5.73239C16.2996 5.88732 16.1422 6.06338 15.9526 6.26056L15.0927 7.15493H17V8Z"
          fill="white" stroke="white" stroke-width="0.5"/>
</svg>
