<svg width="20" height="20" viewBox="0 0 20 20" fill="none" xmlns="http://www.w3.org/2000/svg">
    <rect width="20" height="20" rx="5" fill="#007ED7"/>
    <path d="M8.19563 6.51346C8.48962 6.31395 8.71189 6.02542 8.82978 5.69025C8.94768 5.35509 8.955 4.99095 8.85064 4.65133C8.74629 4.3117 8.53576 4.01449 8.25 3.80335C7.96425 3.59221 7.61833 3.47827 7.26304 3.47827C6.90774 3.47827 6.5618 3.59221 6.27605 3.80335C5.99029 4.01449 5.77976 4.3117 5.67541 4.65133C5.57105 4.99095 5.57837 5.35509 5.69626 5.69025C5.81416 6.02542 6.03642 6.31395 6.33042 6.51346C5.87258 6.69891 5.48059 7.01696 5.2048 7.42678C4.92901 7.8366 4.78199 8.31947 4.78259 8.81345V9.38302H9.7478V8.81345C9.74747 8.31911 9.59958 7.83612 9.32305 7.42636C9.04652 7.0166 8.65394 6.69873 8.19563 6.51346Z"
          fill="white"/>
    <path d="M13.8826 6.51346C14.1766 6.31395 14.3989 6.02542 14.5168 5.69025C14.6346 5.35509 14.642 4.99095 14.5376 4.65133C14.4333 4.3117 14.2227 4.01449 13.937 3.80335C13.6512 3.59221 13.3053 3.47827 12.95 3.47827C12.5947 3.47827 12.2488 3.59221 11.963 3.80335C11.6773 4.01449 11.4667 4.3117 11.3624 4.65133C11.258 4.99095 11.2653 5.35509 11.3832 5.69025C11.5011 6.02542 11.7234 6.31395 12.0174 6.51346C11.5591 6.69873 11.1665 7.0166 10.89 7.42636C10.6134 7.83612 10.4655 8.31911 10.4652 8.81345V9.38302H15.4304V8.81345C15.431 8.31947 15.284 7.8366 15.0082 7.42678C14.7324 7.01696 14.3404 6.69891 13.8826 6.51346Z"
          fill="white"/>
    <path d="M8.19563 13.2743C8.48962 13.0748 8.71189 12.7863 8.82978 12.4511C8.94768 12.1159 8.95499 11.7518 8.85064 11.4122C8.74628 11.0726 8.53576 10.7753 8.25 10.5642C7.96424 10.3531 7.61833 10.2391 7.26303 10.2391C6.90774 10.2391 6.5618 10.3531 6.27604 10.5642C5.99029 10.7753 5.77976 11.0726 5.6754 11.4122C5.57105 11.7518 5.57837 12.1159 5.69626 12.4511C5.81416 12.7863 6.03642 13.0748 6.33042 13.2743C5.87292 13.4603 5.48126 13.7784 5.20554 14.1881C4.92982 14.5978 4.78257 15.0805 4.78259 15.5743V16.1439H9.7478V15.5743C9.74689 15.0801 9.59876 14.5974 9.32231 14.1877C9.04585 13.7781 8.6536 13.4601 8.19563 13.2743Z"
          fill="white"/>
    <path d="M13.8826 13.2743C14.1766 13.0748 14.3989 12.7863 14.5167 12.4511C14.6346 12.1159 14.642 11.7518 14.5376 11.4122C14.4333 11.0726 14.2227 10.7753 13.937 10.5642C13.6512 10.3531 13.3053 10.2391 12.95 10.2391C12.5947 10.2391 12.2488 10.3531 11.963 10.5642C11.6773 10.7753 11.4667 11.0726 11.3624 11.4122C11.258 11.7518 11.2653 12.1159 11.3832 12.4511C11.5011 12.7863 11.7234 13.0748 12.0174 13.2743C11.5594 13.4601 11.1672 13.7781 10.8907 14.1877C10.6142 14.5974 10.4661 15.0801 10.4652 15.5743V16.1439H15.4304V15.5743C15.4304 15.0805 15.2832 14.5978 15.0074 14.1881C14.7317 13.7784 14.3401 13.4603 13.8826 13.2743Z"
          fill="white"/>
</svg>
