<svg width="20" height="20" viewBox="0 0 20 20" fill="none" xmlns="http://www.w3.org/2000/svg">
    <rect width="20" height="20" rx="5" fill="#DC0000"/>
    <path d="M12.1609 5.58697V3.47827H7.37828V5.58697C6.15424 6.13448 5.15516 7.08545 4.54794 8.28099C3.94073 9.47654 3.76217 10.8443 4.0421 12.1556C4.32202 13.467 5.04348 14.6426 6.08592 15.486C7.12837 16.3294 8.42867 16.7896 9.76958 16.7896C11.1105 16.7896 12.4108 16.3294 13.4532 15.486C14.4957 14.6426 15.2171 13.467 15.4971 12.1556C15.777 10.8443 15.5984 9.47654 14.9912 8.28099C14.384 7.08545 13.3849 6.13448 12.1609 5.58697ZM9.76958 15.6957C8.82367 15.6957 7.89901 15.4152 7.11251 14.8896C6.32601 14.3641 5.71301 13.6172 5.35102 12.7433C4.98904 11.8694 4.89433 10.9078 5.07887 9.98001C5.26341 9.05228 5.71891 8.20009 6.38777 7.53123C7.05663 6.86237 7.90881 6.40687 8.83654 6.22233C9.76428 6.03779 10.7259 6.13251 11.5998 6.4945C12.4737 6.85648 13.2206 7.46947 13.7462 8.25597C14.2717 9.04247 14.5522 9.96715 14.5522 10.9131C14.5522 12.1815 14.0483 13.398 13.1514 14.2949C12.2545 15.1918 11.038 15.6957 9.76958 15.6957Z"
          fill="white"/>
    <path d="M9.2261 10.7087L7.65219 12.3348L8.43044 13.0913L10.3131 11.1478V7.43478H9.2261V10.7087Z" fill="white"/>
</svg>
