<svg width="20" height="20" viewBox="0 0 20 20" fill="none" xmlns="http://www.w3.org/2000/svg">
    <rect width="20" height="20" rx="5" fill="#258150"/>
    <path d="M8.72694 6.93045C9.44011 6.93045 10.0182 6.35231 10.0182 5.63914C10.0182 4.92598 9.44011 4.34784 8.72694 4.34784C8.01377 4.34784 7.43564 4.92598 7.43564 5.63914C7.43564 6.35231 8.01377 6.93045 8.72694 6.93045Z"
          fill="white"/>
    <path d="M10.6922 12.3304L10.3748 12.8391L11.853 13.7652C11.9015 13.7949 11.9563 13.8128 12.013 13.8173C12.0696 13.8219 12.1266 13.8129 12.1791 13.7913L12.5574 13.6217C12.6749 13.5704 12.7742 13.4848 12.8424 13.3763C12.9106 13.2677 12.9446 13.1412 12.94 13.0131V12.6044C12.937 12.5469 12.9205 12.4909 12.8918 12.4411C12.8631 12.3912 12.823 12.3488 12.7748 12.3174L11.2922 11.3913L10.9835 11.887L9.85739 11.1739L9.20956 7.80436C9.19458 7.72953 9.16449 7.65855 9.12113 7.59575C9.07777 7.53295 9.02205 7.47966 8.95738 7.43914L7.79652 6.73044C7.71154 6.67832 7.61359 6.6512 7.51391 6.65219H5.26173C5.16839 6.65243 5.07665 6.67652 4.99523 6.72218C4.91381 6.76783 4.84541 6.83354 4.79652 6.91306L3.99217 8.23914C3.91722 8.36252 3.89435 8.51063 3.92859 8.65087C3.96284 8.79112 4.05139 8.91201 4.17478 8.98697C4.29816 9.06192 4.44627 9.08478 4.58651 9.05054C4.72676 9.01629 4.84765 8.92774 4.9226 8.80435L4.98782 8.69566L5.74 9.17392L5.48782 9.79132C5.44235 9.91393 5.41738 10.0432 5.41391 10.1739C5.37185 10.2621 5.351 10.3589 5.35304 10.4565L5.44434 13.1435L4.2226 14.5739C4.11085 14.7062 4.05591 14.8774 4.06975 15.05C4.0836 15.2227 4.1651 15.3828 4.29652 15.4957C4.3618 15.5515 4.43747 15.594 4.5192 15.6205C4.60093 15.647 4.6871 15.6572 4.77275 15.6503C4.8584 15.6434 4.94186 15.6197 5.01831 15.5805C5.09477 15.5413 5.16272 15.4873 5.21826 15.4217L6.60086 13.8174C6.70581 13.6973 6.76169 13.5421 6.75739 13.3826L6.7226 12.3087L7.6226 13.3652V15.0304C7.6226 15.2034 7.69131 15.3693 7.81362 15.4916C7.93593 15.6139 8.10181 15.6826 8.27478 15.6826C8.44774 15.6826 8.61363 15.6139 8.73593 15.4916C8.85824 15.3693 8.92695 15.2034 8.92695 15.0304V13.1261C8.92802 12.9672 8.87254 12.8131 8.77043 12.6913L7.28782 10.9522C7.37981 10.8562 7.45348 10.7442 7.50521 10.6218L7.60521 10.3696L8.73999 11.087L8.8313 11.5826C8.85566 11.7061 8.92246 11.8172 9.02014 11.8966C9.11782 11.976 9.2402 12.0188 9.36608 12.0174H9.46173C9.53615 12.0044 9.6069 11.9756 9.66917 11.9328C9.73144 11.89 9.78377 11.8344 9.8226 11.7696L10.6922 12.3304ZM5.24434 8.26523L5.56608 7.73044H6.30956L5.9226 8.69566L5.24434 8.26523ZM7.78782 9.87393L8.27913 8.67392L8.59652 10.4131L7.78782 9.87393Z"
          fill="white"/>
    <path d="M16.54 15.1956C16.1052 14.6956 15.2356 13.8435 14.3661 13.8435C13.7095 13.8435 12.8226 14.4261 12.4748 14.7609C12.4435 14.7923 12.4028 14.8127 12.3588 14.819C12.3149 14.8253 12.2701 14.8171 12.2313 14.7956C11.9253 14.6311 11.5869 14.5361 11.24 14.5174C10.8313 14.5174 10.5269 14.8261 10.1878 15.187C10.1589 15.217 10.1394 15.2548 10.1318 15.2958C10.1241 15.3368 10.1287 15.3791 10.1449 15.4176C10.1611 15.456 10.1882 15.4888 10.2229 15.512C10.2576 15.5351 10.2983 15.5476 10.34 15.5478H16.3748C16.4159 15.5486 16.4564 15.5374 16.4913 15.5157C16.5262 15.4939 16.5541 15.4625 16.5715 15.4253C16.589 15.3881 16.5953 15.3466 16.5897 15.3058C16.5841 15.2651 16.5669 15.2268 16.54 15.1956Z"
          fill="white"/>
</svg>
