<svg width="20" height="20" viewBox="0 0 20 20" fill="none" xmlns="http://www.w3.org/2000/svg">
    <rect width="20" height="20" rx="5" fill="#01CEBA"/>
    <path d="M11.2087 9.97879C11.5437 9.75178 11.7971 9.42329 11.9316 9.04158C12.0661 8.65987 12.0746 8.24509 11.9559 7.85819C11.8372 7.47128 11.5974 7.13267 11.272 6.89211C10.9465 6.65155 10.5525 6.52173 10.1478 6.52173C9.7431 6.52173 9.34907 6.65155 9.02362 6.89211C8.69816 7.13267 8.45846 7.47128 8.33973 7.85819C8.221 8.24509 8.22949 8.65987 8.36399 9.04158C8.49848 9.42329 8.75189 9.75178 9.08693 9.97879C8.66595 10.1528 8.2931 10.4257 7.99998 10.7744C7.5619 11.2802 7.32106 11.9271 7.32172 12.5962V13.244H12.9739V12.5962C12.9734 11.9184 12.7279 11.2637 12.2826 10.7527C11.9898 10.4146 11.6221 10.1495 11.2087 9.97879Z"
          fill="white"/>
    <path d="M15.4869 9.97878C15.7416 9.80551 15.95 9.57252 16.0939 9.30015C16.2379 9.02778 16.3129 8.72432 16.3125 8.41627C16.3121 8.10822 16.2363 7.80495 16.0917 7.53294C15.9471 7.26094 15.7381 7.02846 15.483 6.85582C15.2279 6.68319 14.9344 6.57565 14.6281 6.54258C14.3218 6.50951 14.0121 6.55192 13.726 6.66612C13.4399 6.78032 13.1861 6.96284 12.9868 7.19771C12.7875 7.43259 12.6487 7.7127 12.5826 8.01357C12.519 8.27939 12.519 8.55644 12.5826 8.82226C12.6843 9.29438 12.9647 9.70883 13.3652 9.97878C13.1303 10.0746 12.9094 10.2018 12.7087 10.357C13.2546 10.9749 13.5548 11.7717 13.5522 12.5962V13.244H17.2478V12.5962C17.2483 12.0341 17.081 11.4847 16.7673 11.0184C16.4536 10.5521 16.0077 10.1901 15.4869 9.97878Z"
          fill="white"/>
    <path d="M6.92608 9.9788C7.14113 9.8328 7.32361 9.64386 7.46204 9.42387C7.60048 9.20387 7.69185 8.95758 7.73041 8.70054C7.74772 8.60733 7.75645 8.51273 7.7565 8.41793C7.75519 8.32298 7.745 8.22837 7.72606 8.13532C7.67869 7.82635 7.55515 7.53404 7.36656 7.28476C7.17797 7.03548 6.93028 6.83708 6.64584 6.70747C6.3614 6.57786 6.04915 6.52111 5.7373 6.54234C5.42544 6.56358 5.12378 6.66213 4.85953 6.8291C4.59529 6.99608 4.37679 7.22622 4.22373 7.49877C4.07067 7.77131 3.98788 8.07766 3.98283 8.3902C3.97778 8.70274 4.05064 9.01161 4.19482 9.28895C4.339 9.5663 4.54997 9.80338 4.80869 9.9788C4.28844 10.1889 3.84262 10.5493 3.5282 11.0139C3.21377 11.4786 3.04501 12.0264 3.04346 12.5875V13.2353H6.77389V12.5875C6.77149 11.7706 7.06671 10.9808 7.60433 10.3658C7.39762 10.2054 7.16928 10.0752 6.92608 9.9788Z"
          fill="white"/>
</svg>
