<svg width="20" height="20" viewBox="0 0 20 20" fill="none" xmlns="http://www.w3.org/2000/svg">
    <rect width="20" height="20" rx="5" fill="#44ADCB"/>
    <path d="M8.84346 10.0394C9.26875 9.75144 9.59044 9.33462 9.76123 8.85023C9.93202 8.36584 9.94292 7.83943 9.7923 7.34839C9.64169 6.85735 9.33753 6.42759 8.92452 6.12226C8.5115 5.81694 8.01143 5.65216 7.49781 5.65216C6.98419 5.65216 6.48412 5.81694 6.07111 6.12226C5.6581 6.42759 5.35392 6.85735 5.20331 7.34839C5.0527 7.83943 5.06359 8.36584 5.23438 8.85023C5.40518 9.33462 5.72686 9.75144 6.15215 10.0394C5.49084 10.3076 4.92454 10.7669 4.52567 11.3586C4.1268 11.9503 3.91349 12.6476 3.91302 13.3612V14.1873H11.0826V13.3612C11.0787 12.6484 10.864 11.9526 10.4655 11.3616C10.0671 10.7705 9.50274 10.3105 8.84346 10.0394Z"
          fill="white"/>
    <path d="M14.1782 10.0394C14.5016 9.82039 14.7667 9.52572 14.9504 9.18101C15.1341 8.83629 15.2308 8.45194 15.2323 8.06134C15.2338 7.67075 15.1399 7.2857 14.9588 6.93962C14.7776 6.59354 14.5148 6.2969 14.1931 6.07543C13.8713 5.85397 13.5004 5.71437 13.1124 5.66878C12.7245 5.62319 12.3313 5.67297 11.967 5.8138C11.6027 5.95464 11.2782 6.18226 11.0218 6.47692C10.7654 6.77159 10.5848 7.12437 10.4956 7.50466C10.4536 7.68576 10.4318 7.87094 10.4304 8.05683C10.4301 8.24139 10.452 8.42533 10.4956 8.60466C10.6338 9.18945 10.9859 9.70131 11.4826 10.0394C11.1823 10.1615 10.9 10.3238 10.6435 10.5221C11.3488 11.2991 11.7381 12.3118 11.7348 13.3612V14.1873H16.413V13.3612C16.4129 12.6481 16.2002 11.9512 15.8022 11.3595C15.4041 10.7679 14.8387 10.3083 14.1782 10.0394Z"
          fill="white"/>
</svg>
