<svg width="20" height="20" viewBox="0 0 20 20" fill="none" xmlns="http://www.w3.org/2000/svg">
    <rect width="20" height="20" rx="5" fill="#FA21B8"/>
    <path d="M15.6779 8.70544H14.8764C14.6022 8.70336 14.3329 8.77867 14.0981 8.92304C13.8632 9.06742 13.6721 9.27523 13.5458 9.52353L12.4156 12.0351C12.2707 11.7778 12.1001 11.5365 11.9066 11.3151L13.6019 7.74828L14.7681 7.71966C14.9286 7.71963 15.0856 7.67258 15.2206 7.58412C15.3556 7.49565 15.4629 7.3695 15.5296 7.22063L16.0466 6.53752C16.0776 6.47017 16.0912 6.3958 16.0858 6.32158C16.0805 6.24735 16.0566 6.17577 16.0163 6.11372C15.9761 6.05168 15.9208 6.00125 15.856 5.9673C15.7911 5.93334 15.7187 5.91701 15.6459 5.91986H14.8443C14.5701 5.91732 14.3005 5.99244 14.0656 6.13687C13.8308 6.28129 13.6397 6.48935 13.5137 6.73795L11.4657 10.8979C11.1085 10.5799 10.7022 10.3242 10.2634 10.1412C10.7717 9.78864 11.1558 9.27906 11.3595 8.68727C11.5631 8.09547 11.5755 7.45262 11.3948 6.85311C11.2141 6.25361 10.8498 5.72902 10.3555 5.35637C9.86115 4.98371 9.26277 4.78262 8.64821 4.78262C8.03365 4.78262 7.43527 4.98371 6.94093 5.35637C6.44659 5.72902 6.08235 6.25361 5.90165 6.85311C5.72095 7.45262 5.73333 8.09547 5.93697 8.68727C6.14061 9.27906 6.52477 9.78864 7.03308 10.1412C6.2402 10.4697 5.56126 11.032 5.08296 11.7562C4.60467 12.4804 4.34873 13.3337 4.34784 14.2071V15.2174H12.9486V14.2071C12.9491 13.6728 12.8526 13.143 12.664 12.6445L13.5698 10.5339L14.7361 10.5052C14.8962 10.5061 15.0531 10.4598 15.1881 10.3721C15.3232 10.2843 15.4306 10.1587 15.4976 10.0103L16.0346 9.30673C16.0608 9.24355 16.072 9.17492 16.0672 9.10648C16.0624 9.03804 16.0417 8.97175 16.0069 8.91305C15.972 8.85435 15.924 8.80492 15.8669 8.76883C15.8097 8.73274 15.7449 8.71101 15.6779 8.70544Z"
          fill="white"/>
</svg>
