<svg width="20" height="21" viewBox="0 0 20 21" fill="none" xmlns="http://www.w3.org/2000/svg">
<rect y="0.5" width="20" height="20" rx="5" fill="#CA36FB"/>
<path d="M4.95654 17.1436V6.8479H7.01307V15.4175H12.187V17.1566L4.95654 17.1436Z" fill="white"/>
<path d="M13.2901 8.41216C14.7311 6.97297 16.4333 5.97973 16.4333 4.85473C16.4333 4.16554 16.0271 3.68919 15.4468 3.68919C14.9536 3.68919 14.4603 4.03378 14.2476 4.53041L13 3.94257C13.4255 2.94932 14.441 2.25 15.4468 2.25C16.8878 2.25 17.9033 3.32432 17.9033 4.85473C17.9033 6.35473 16.675 7.44932 15.5048 8.41216H18V9.75H13.3868L13.2901 8.41216Z" fill="white"/>
</svg>
