<svg width="25" height="25" viewBox="0 0 25 25" fill="none" xmlns="http://www.w3.org/2000/svg">
    <rect width="25" height="25" rx="5" fill="#688EFF"/>
    <path d="M14.0109 12.4737C14.4297 12.1899 14.7464 11.7793 14.9145 11.3022C15.0827 10.825 15.0933 10.3065 14.9449 9.82292C14.7965 9.33929 14.4968 8.91602 14.09 8.61532C13.6832 8.31461 13.1907 8.15234 12.6848 8.15234C12.1789 8.15234 11.6864 8.31461 11.2795 8.61532C10.8727 8.91602 10.5731 9.33929 10.4247 9.82292C10.2763 10.3065 10.2869 10.825 10.455 11.3022C10.6231 11.7793 10.9399 12.1899 11.3587 12.4737C10.8325 12.6912 10.3664 13.0324 9.99999 13.4682C9.45238 14.1004 9.15134 14.909 9.15216 15.7454V16.5552H16.2174V15.7454C16.2168 14.8982 15.9099 14.0798 15.3532 13.4411C14.9873 13.0184 14.5276 12.6871 14.0109 12.4737Z" fill="white"/>
    <path d="M19.3587 12.4734C19.6771 12.2568 19.9376 11.9656 20.1175 11.6251C20.2974 11.2847 20.3911 10.9054 20.3907 10.5203C20.3902 10.1352 20.2954 9.75614 20.1147 9.41613C19.9339 9.07612 19.6727 8.78553 19.3538 8.56973C19.0349 8.35394 18.668 8.21951 18.2852 8.17818C17.9023 8.13685 17.5152 8.18986 17.1576 8.33261C16.7999 8.47536 16.4827 8.7035 16.2335 8.9971C15.9844 9.29069 15.8109 9.64083 15.7282 10.0169C15.6488 10.3492 15.6488 10.6955 15.7282 11.0278C15.8554 11.6179 16.206 12.136 16.7065 12.4734C16.4129 12.5932 16.1368 12.7522 15.8859 12.9463C16.5683 13.7186 16.9435 14.7145 16.9402 15.7452V16.555H21.5598V15.7452C21.5605 15.0426 21.3513 14.3559 20.9592 13.773C20.567 13.1901 20.0097 12.7376 19.3587 12.4734Z" fill="white"/>
    <path d="M8.65762 12.4734C8.92644 12.2909 9.15454 12.0547 9.32758 11.7797C9.50062 11.5047 9.61484 11.1969 9.66304 10.8755C9.68468 10.759 9.69559 10.6408 9.69565 10.5223C9.69402 10.4036 9.68128 10.2853 9.6576 10.169C9.5984 9.78281 9.44397 9.41741 9.20823 9.10582C8.9725 8.79422 8.66288 8.54623 8.30733 8.38421C7.95179 8.22219 7.56147 8.15126 7.17165 8.1778C6.78183 8.20434 6.40475 8.32753 6.07444 8.53625C5.74414 8.74497 5.47102 9.03265 5.27969 9.37333C5.08837 9.714 4.98487 10.0969 4.97856 10.4876C4.97226 10.8783 5.06333 11.2644 5.24355 11.6111C5.42378 11.9577 5.68749 12.2541 6.01089 12.4734C5.36059 12.736 4.80331 13.1864 4.41027 13.7673C4.01724 14.3481 3.80629 15.0329 3.80435 15.7342V16.544H8.46739V15.7342C8.46439 14.7131 8.83342 13.7259 9.50545 12.9571C9.24706 12.7567 8.96163 12.5938 8.65762 12.4734Z" fill="white"/>
</svg>
