<svg width="25" height="25" viewBox="0 0 25 25" fill="none" xmlns="http://www.w3.org/2000/svg">
    <rect width="25" height="25" rx="5" fill="#09C3CF"/>
    <path d="M15.5737 12.8599C17.6929 10.7434 20.196 9.28275 20.196 7.62834C20.196 6.61482 19.5987 5.91431 18.7453 5.91431C18.02 5.91431 17.2946 6.42106 16.9817 7.15139L15.1471 6.28692C15.7728 4.82627 17.2662 3.79785 18.7453 3.79785C20.8644 3.79785 22.3578 5.37774 22.3578 7.62834C22.3578 9.83422 20.5515 11.4439 18.8306 12.8599H22.5V14.8273H15.716L15.5737 12.8599Z" fill="white"/>
    <path d="M2.94118 22.0588V5.88232H13.2353V8.70215H6.22831V12.5567H12.5521V15.3765H6.22831V22.0588H2.94118Z" fill="white"/>
</svg>
