<svg width="20" height="21" viewBox="0 0 20 21" fill="none" xmlns="http://www.w3.org/2000/svg">
<rect y="0.5" width="20" height="20" rx="5" fill="#688EFF"/>
<path d="M11.2087 10.4788C11.5438 10.2518 11.7972 9.92329 11.9317 9.54158C12.0662 9.15987 12.0747 8.74509 11.956 8.35819C11.8372 7.97128 11.5975 7.63267 11.2721 7.39211C10.9466 7.15155 10.5526 7.02173 10.1479 7.02173C9.74316 7.02173 9.34913 7.15155 9.02368 7.39211C8.69822 7.63267 8.45852 7.97128 8.33979 8.35819C8.22106 8.74509 8.22955 9.15987 8.36405 9.54158C8.49854 9.92329 8.75195 10.2518 9.08699 10.4788C8.66601 10.6528 8.29317 10.9257 8.00004 11.2744C7.56196 11.7802 7.32112 12.4271 7.32178 13.0962V13.744H12.974V13.0962C12.9735 12.4184 12.7279 11.7637 12.2826 11.2527C11.9899 10.9146 11.6221 10.6495 11.2087 10.4788Z" fill="white"/>
<path d="M15.4869 10.4788C15.7416 10.3056 15.95 10.0726 16.0939 9.80021C16.2379 9.52784 16.3129 9.22438 16.3125 8.91633C16.3121 8.60828 16.2363 8.30501 16.0917 8.033C15.9471 7.761 15.7381 7.52852 15.483 7.35589C15.2279 7.18325 14.9344 7.07571 14.6281 7.04264C14.3218 7.00958 14.0121 7.05199 13.726 7.16619C13.4399 7.28039 13.1861 7.4629 12.9868 7.69777C12.7875 7.93265 12.6487 8.21276 12.5826 8.51363C12.519 8.77945 12.519 9.0565 12.5826 9.32232C12.6843 9.79444 12.9647 10.2089 13.3652 10.4788C13.1303 10.5746 12.9094 10.7019 12.7087 10.8571C13.2546 11.4749 13.5548 12.2717 13.5522 13.0962V13.7441H17.2478V13.0962C17.2483 12.5342 17.081 11.9848 16.7673 11.5185C16.4536 11.0522 16.0077 10.6901 15.4869 10.4788Z" fill="white"/>
<path d="M6.92608 10.4788C7.14113 10.3328 7.32361 10.1438 7.46204 9.92384C7.60048 9.70384 7.69185 9.45755 7.73041 9.2005C7.74772 9.1073 7.75645 9.0127 7.7565 8.9179C7.75519 8.82295 7.745 8.72834 7.72606 8.63529C7.67869 8.32632 7.55515 8.03401 7.36656 7.78473C7.17797 7.53545 6.93028 7.33705 6.64584 7.20744C6.3614 7.07783 6.04915 7.02108 5.7373 7.04231C5.42544 7.06355 5.12378 7.1621 4.85953 7.32907C4.59529 7.49605 4.37679 7.72619 4.22373 7.99873C4.07067 8.27128 3.98788 8.57763 3.98283 8.89017C3.97778 9.20271 4.05064 9.51158 4.19482 9.78892C4.339 10.0663 4.54997 10.3033 4.80869 10.4788C4.28844 10.6888 3.84262 11.0492 3.5282 11.5139C3.21377 11.9786 3.04501 12.5264 3.04346 13.0875V13.7353H6.77389V13.0875C6.77149 12.2706 7.06671 11.4808 7.60433 10.8657C7.39762 10.7054 7.16928 10.5751 6.92608 10.4788Z" fill="white"/>
</svg>
