<svg width="20" height="21" viewBox="0 0 20 21" fill="none" xmlns="http://www.w3.org/2000/svg">
<rect y="0.5" width="20" height="20" rx="5" fill="#8DA9FF"/>
<path d="M8.84352 10.5395C9.26881 10.2515 9.5905 9.83468 9.76129 9.35029C9.93209 8.8659 9.94298 8.3395 9.79237 7.84845C9.64176 7.35741 9.33759 6.92765 8.92458 6.62233C8.51156 6.317 8.01149 6.15222 7.49787 6.15222C6.98425 6.15222 6.48418 6.317 6.07117 6.62233C5.65816 6.92765 5.35398 7.35741 5.20337 7.84845C5.05276 8.3395 5.06365 8.8659 5.23444 9.35029C5.40524 9.83468 5.72692 10.2515 6.15221 10.5395C5.4909 10.8076 4.9246 11.2669 4.52573 11.8587C4.12686 12.4504 3.91356 13.1476 3.91309 13.8612V14.6873H11.0826V13.8612C11.0787 13.1484 10.864 12.4527 10.4656 11.8616C10.0672 11.2705 9.5028 10.8105 8.84352 10.5395Z" fill="white"/>
<path d="M14.1782 10.5394C14.5016 10.3204 14.7667 10.0257 14.9504 9.68098C15.1341 9.33626 15.2308 8.95191 15.2323 8.56131C15.2338 8.17072 15.1399 7.78567 14.9588 7.43959C14.7776 7.09351 14.5148 6.79687 14.1931 6.5754C13.8713 6.35394 13.5004 6.21434 13.1124 6.16875C12.7245 6.12316 12.3313 6.17294 11.967 6.31377C11.6027 6.4546 11.2782 6.68223 11.0218 6.97689C10.7654 7.27155 10.5848 7.62434 10.4956 8.00463C10.4536 8.18573 10.4318 8.37091 10.4304 8.5568C10.4301 8.74136 10.452 8.92529 10.4956 9.10463C10.6338 9.68942 10.9859 10.2013 11.4826 10.5394C11.1823 10.6614 10.9 10.8238 10.6435 11.022C11.3488 11.799 11.7381 12.8117 11.7348 13.8612V14.6872H16.413V13.8612C16.4129 13.148 16.2002 12.4512 15.8022 11.8595C15.4041 11.2678 14.8387 10.8082 14.1782 10.5394Z" fill="white"/>
</svg>
