<svg width="25" height="25" viewBox="0 0 25 25" fill="none" xmlns="http://www.w3.org/2000/svg">
    <rect width="25" height="25" rx="5" fill="#14A8B2"/>
    <path d="M20.8907 8.86059C21.8341 9.2681 22.5 10.0402 22.5 10.7158C22.5 12.0563 20.9878 13 18.8235 13C16.6593 13 15.1471 11.992 15.1471 10.555H17.2558C17.2558 11.1448 17.9079 11.563 18.8235 11.563C19.7947 11.563 20.4884 11.1448 20.4884 10.555C20.4884 9.9437 19.8086 9.51475 18.8513 9.51475H18.1576V8.22788H18.879C19.7392 8.22788 20.3357 7.84182 20.3357 7.29491C20.3357 6.79088 19.7531 6.437 18.9206 6.437C18.1437 6.437 17.5888 6.79088 17.5888 7.29491H15.48C15.48 5.9437 16.8951 5 18.9206 5C20.9184 5 22.3335 5.87936 22.3335 7.13405C22.3335 7.75603 21.737 8.47453 20.8907 8.86059Z" fill="white"/>
    <path d="M2.94118 22.0588V5.88232H13.2353V8.70215H6.22831V12.5567H12.5521V15.3765H6.22831V22.0588H2.94118Z" fill="white"/>
</svg>
