<svg width="25" height="25" viewBox="0 0 25 25" fill="none" xmlns="http://www.w3.org/2000/svg">
    <rect width="25" height="25" rx="5" fill="#258150"/>
    <path d="M10.9087 8.66283C11.8001 8.66283 12.5228 7.94016 12.5228 7.0487C12.5228 6.15724 11.8001 5.43457 10.9087 5.43457C10.0172 5.43457 9.29453 6.15724 9.29453 7.0487C9.29453 7.94016 10.0172 8.66283 10.9087 8.66283Z" fill="white"/>
    <path d="M13.3652 15.4128L12.9684 16.0487L14.8163 17.2063C14.8768 17.2434 14.9453 17.2657 15.0162 17.2714C15.087 17.2771 15.1582 17.2659 15.2239 17.2389L15.6967 17.0269C15.8435 16.9627 15.9677 16.8558 16.053 16.7201C16.1383 16.5844 16.1808 16.4262 16.175 16.2661V15.7552C16.1712 15.6834 16.1506 15.6134 16.1147 15.5511C16.0788 15.4888 16.0287 15.4358 15.9684 15.3965L14.1152 14.2389L13.7293 14.8585L12.3217 13.9671L11.5119 9.75519C11.4932 9.66165 11.4556 9.57293 11.4014 9.49443C11.3472 9.41593 11.2775 9.34931 11.1967 9.29867L9.74562 8.4128C9.6394 8.34764 9.51697 8.31374 9.39236 8.31497H6.57714C6.46046 8.31528 6.34579 8.34539 6.24402 8.40246C6.14225 8.45953 6.05674 8.54167 5.99562 8.64106L4.99019 10.2987C4.8965 10.4529 4.86791 10.638 4.91072 10.8133C4.95353 10.9886 5.06422 11.1398 5.21845 11.2334C5.37268 11.3271 5.55781 11.3557 5.73312 11.3129C5.90842 11.2701 6.05954 11.1594 6.15323 11.0052L6.23475 10.8693L7.17497 11.4671L6.85975 12.2389C6.80291 12.3922 6.7717 12.5537 6.76736 12.7171C6.71479 12.8274 6.68873 12.9483 6.69127 13.0704L6.80541 16.4291L5.27823 18.2171C5.13854 18.3825 5.06986 18.5964 5.08717 18.8123C5.10447 19.0281 5.20636 19.2283 5.37062 19.3693C5.45222 19.4392 5.54682 19.4922 5.64898 19.5254C5.75114 19.5585 5.85885 19.5712 5.96592 19.5626C6.07298 19.554 6.1773 19.5244 6.27287 19.4753C6.36843 19.4263 6.45337 19.3589 6.5228 19.2769L8.25106 17.2715C8.38224 17.1213 8.45209 16.9273 8.44671 16.728L8.40323 15.3856L9.52823 16.7063V18.7878C9.52823 19.004 9.61412 19.2114 9.767 19.3642C9.91988 19.5171 10.1272 19.603 10.3434 19.603C10.5597 19.603 10.767 19.5171 10.9199 19.3642C11.0728 19.2114 11.1587 19.004 11.1587 18.7878V16.4074C11.16 16.2087 11.0907 16.0161 10.963 15.8639L9.10975 13.69C9.22473 13.57 9.31683 13.43 9.38149 13.2769L9.50649 12.9617L10.925 13.8584L11.0391 14.478C11.0695 14.6324 11.1531 14.7712 11.2752 14.8705C11.3972 14.9698 11.5502 15.0232 11.7076 15.0215H11.8271C11.9202 15.0053 12.0086 14.9692 12.0864 14.9157C12.1643 14.8623 12.2297 14.7927 12.2782 14.7117L13.3652 15.4128ZM6.55541 10.3313L6.95758 9.66279H7.88693L7.40323 10.8693L6.55541 10.3313ZM9.73475 12.3421L10.3489 10.8421L10.7456 13.0161L9.73475 12.3421Z" fill="white"/>
    <path d="M20.675 18.9944C20.1315 18.3694 19.0445 17.3042 17.9576 17.3042C17.1369 17.3042 16.0282 18.0325 15.5935 18.4509C15.5543 18.4902 15.5035 18.5158 15.4486 18.5236C15.3936 18.5314 15.3377 18.5212 15.2891 18.4944C14.9067 18.2887 14.4836 18.17 14.05 18.1466C13.5391 18.1466 13.1587 18.5325 12.7348 18.9836C12.6986 19.0211 12.6742 19.0684 12.6647 19.1196C12.6552 19.1709 12.6609 19.2238 12.6811 19.2718C12.7014 19.3198 12.7353 19.3609 12.7786 19.3898C12.822 19.4187 12.8729 19.4343 12.925 19.4346H20.4685C20.5199 19.4356 20.5704 19.4216 20.6141 19.3944C20.6577 19.3673 20.6926 19.328 20.7144 19.2815C20.7363 19.2349 20.7442 19.183 20.7372 19.1321C20.7302 19.0812 20.7086 19.0333 20.675 18.9944Z" fill="white"/>
</svg>
