<svg width="20" height="21" viewBox="0 0 20 21" fill="none" xmlns="http://www.w3.org/2000/svg">
<rect y="0.5" width="20" height="20" rx="5" fill="#58B81C"/>
<path d="M10.1391 6.79686H9.39558C9.36291 6.56322 9.36291 6.32617 9.39558 6.09252C9.42252 5.92869 9.47534 5.77018 9.55209 5.62295C9.61385 5.50231 9.69625 5.39342 9.79557 5.30121C9.88688 5.2186 9.9782 5.13599 10.0608 5.05338C10.1422 4.97662 10.2125 4.88882 10.2695 4.79252C10.3287 4.68645 10.3573 4.56604 10.3521 4.44469C10.3603 4.29033 10.3175 4.13755 10.2304 4.00991C10.1849 3.94825 10.124 3.89971 10.0537 3.86917C9.98351 3.83863 9.90644 3.82718 9.83036 3.836C9.74884 3.835 9.66801 3.85113 9.59312 3.88334C9.51823 3.91554 9.45094 3.9631 9.39558 4.02295C9.26314 4.18823 9.19106 4.39376 9.19124 4.60556H8.37817C8.38675 4.35478 8.44436 4.10811 8.54775 3.87948C8.63407 3.69956 8.75699 3.53963 8.90862 3.4099C9.04429 3.2961 9.20301 3.21304 9.37384 3.16643C9.53521 3.12241 9.70237 3.10334 9.8695 3.1099C10.0534 3.11731 10.2352 3.1525 10.4086 3.21426C10.5687 3.26699 10.7165 3.35126 10.8434 3.46209C10.9662 3.56858 11.0641 3.70065 11.1304 3.84904C11.2024 4.01339 11.238 4.19138 11.2347 4.37078C11.2407 4.56367 11.2082 4.75582 11.1391 4.936C11.0827 5.06816 11.0048 5.19008 10.9086 5.29686C10.819 5.3905 10.7215 5.47633 10.6173 5.55339C10.5147 5.6293 10.4226 5.71848 10.3434 5.8186C10.2576 5.92887 10.1968 6.05645 10.1652 6.19252C10.1191 6.39062 10.1103 6.59554 10.1391 6.79686ZM10.2434 7.33165V8.25774H9.29123V7.33165H10.2434Z" fill="white"/>
<path d="M11.2478 13.1839C11.5816 12.957 11.8338 12.6292 11.9674 12.2484C12.1011 11.8677 12.1091 11.4541 11.9905 11.0684C11.8718 10.6827 11.6326 10.3453 11.308 10.1055C10.9834 9.86581 10.5905 9.73645 10.187 9.73645C9.78344 9.73645 9.39054 9.86581 9.06594 10.1055C8.74134 10.3453 8.50214 10.6827 8.38346 11.0684C8.26478 11.4541 8.27286 11.8677 8.40652 12.2484C8.54018 12.6292 8.79239 12.957 9.1261 13.1839C8.70511 13.3579 8.33227 13.6308 8.03914 13.9795C7.60466 14.4871 7.36568 15.1332 7.36523 15.8013V16.4491H13.0174V15.8013C13.0185 15.1232 12.7728 14.4679 12.3261 13.9578C12.033 13.6182 11.6634 13.3529 11.2478 13.1839Z" fill="white"/>
<path d="M15.5088 13.1839C15.7635 13.0107 15.9719 12.7777 16.1158 12.5053C16.2597 12.2329 16.3348 11.9295 16.3344 11.6214C16.334 11.3134 16.2582 11.0101 16.1136 10.7381C15.969 10.4661 15.76 10.2336 15.5049 10.061C15.2498 9.88834 14.9562 9.78079 14.65 9.74772C14.3437 9.71465 14.034 9.75708 13.7479 9.87128C13.4618 9.98548 13.208 10.168 13.0087 10.4029C12.8094 10.6377 12.6706 10.9178 12.6045 11.2187C12.5731 11.3512 12.557 11.4869 12.5566 11.6231C12.5592 11.7591 12.5752 11.8945 12.6045 12.0274C12.7078 12.4988 12.9879 12.9127 13.3871 13.1839C13.1528 13.283 12.9322 13.4115 12.7305 13.5665C13.2759 14.1831 13.576 14.9782 13.574 15.8013V16.4492H17.2697V15.8013C17.269 15.2395 17.1013 14.6907 16.7877 14.2246C16.4741 13.7585 16.0289 13.3962 15.5088 13.1839Z" fill="white"/>
<path d="M6.95215 13.1838C7.1663 13.0369 7.34812 12.8477 7.48644 12.6278C7.62477 12.408 7.71667 12.1622 7.75648 11.9056C7.76312 11.8115 7.76312 11.717 7.75648 11.623C7.75426 11.5283 7.74555 11.4338 7.7304 11.3404C7.68394 11.0301 7.56085 10.7362 7.37225 10.4855C7.18366 10.2348 6.93552 10.035 6.65029 9.9043C6.36505 9.7736 6.05172 9.71609 5.73866 9.73697C5.4256 9.75785 5.12269 9.85647 4.85734 10.0239C4.59199 10.1913 4.37259 10.4223 4.21897 10.6958C4.06534 10.9694 3.98234 11.277 3.97751 11.5907C3.97267 11.9044 4.04616 12.2144 4.19129 12.4925C4.33641 12.7707 4.54861 13.0083 4.80867 13.1838C4.28911 13.3949 3.84395 13.7555 3.52967 14.2199C3.21539 14.6844 3.04616 15.2317 3.04346 15.7925V16.4403H6.78693V15.7925C6.7857 14.9766 7.07905 14.1877 7.61302 13.5708C7.41128 13.4125 7.18895 13.2823 6.95215 13.1838Z" fill="white"/>
</svg>
