<svg width="25" height="25" viewBox="0 0 25 25" fill="none" xmlns="http://www.w3.org/2000/svg">
    <rect width="25" height="25" rx="5" fill="#01562D"/>
    <path d="M20.8048 8.09172L17.2178 4.50476C17.1443 4.43198 17.0514 4.38172 16.9503 4.35988C16.8491 4.33805 16.7438 4.34557 16.6468 4.38153C16.5497 4.41749 16.465 4.48041 16.4025 4.56289C16.34 4.64538 16.3023 4.744 16.2939 4.84715L16.0168 8.40695L10.3918 14.0319L8.84284 12.483C8.76587 12.4023 8.67263 12.3388 8.56929 12.2968C8.46595 12.2547 8.35486 12.2351 8.24338 12.2392C8.13189 12.2433 8.02255 12.2711 7.92259 12.3206C7.82262 12.3701 7.73431 12.4403 7.66349 12.5265L5.16349 15.5537C4.73015 16.018 4.4535 16.6066 4.37257 17.2365C4.29163 17.8664 4.4105 18.5058 4.71241 19.0645L4.95697 19.5754C5.12187 19.9141 5.3955 20.1877 5.73415 20.3526L6.24502 20.6026C6.82042 20.8978 7.47228 21.0102 8.11333 20.9247C8.75438 20.8393 9.35402 20.56 9.83197 20.1243L12.7885 17.6515C12.8736 17.5798 12.9426 17.491 12.9912 17.3909C13.0397 17.2907 13.0667 17.1815 13.0703 17.0703C13.0738 16.9591 13.054 16.8484 13.012 16.7453C12.97 16.6423 12.9068 16.5492 12.8265 16.4722L11.2831 14.9287L16.9244 9.2928L20.457 9.02106C20.5612 9.01358 20.6611 8.9762 20.7447 8.91337C20.8282 8.85055 20.8919 8.76497 20.928 8.66688C20.9642 8.56879 20.9713 8.46235 20.9484 8.36034C20.9256 8.25833 20.8739 8.16506 20.7994 8.09172H20.8048ZM8.0548 17.2548L10.3918 14.0319L11.2831 14.9178L8.0548 17.2548ZM17.1255 8.18954L17.2613 6.10803L19.1798 8.02651L17.1255 8.18954Z" fill="white"/>
</svg>
