<svg width="20" height="20" viewBox="0 0 20 20" fill="none" xmlns="http://www.w3.org/2000/svg">
<rect width="20" height="20" rx="5" fill="#01562D"/>
<path d="M16.6438 6.47352L13.7743 3.60395C13.7154 3.54573 13.6412 3.50552 13.5602 3.48805C13.4793 3.47059 13.3951 3.4766 13.3174 3.50537C13.2398 3.53414 13.172 3.58447 13.122 3.65046C13.072 3.71645 13.0418 3.79535 13.0351 3.87787L12.8134 6.7257L8.3134 11.2257L7.07427 9.98657C7.0127 9.92197 6.93811 9.87118 6.85543 9.83756C6.77276 9.80393 6.68389 9.78824 6.5947 9.79153C6.50552 9.79482 6.41804 9.817 6.33807 9.85662C6.2581 9.89624 6.18745 9.95239 6.13079 10.0214L4.13079 12.4431C3.78412 12.8145 3.5628 13.2854 3.49805 13.7893C3.43331 14.2933 3.5284 14.8048 3.76993 15.2518L3.96558 15.6605C4.0975 15.9314 4.3164 16.1503 4.58732 16.2822L4.99601 16.4822C5.45634 16.7184 5.97783 16.8083 6.49066 16.7399C7.0035 16.6715 7.48321 16.4481 7.86558 16.0996L10.2308 14.1213C10.2989 14.064 10.3541 13.9929 10.393 13.9128C10.4318 13.8327 10.4533 13.7454 10.4562 13.6564C10.4591 13.5674 10.4432 13.4788 10.4096 13.3964C10.376 13.314 10.3255 13.2395 10.2612 13.1779L9.02645 11.9431L13.5395 7.43439L16.3656 7.217C16.449 7.21101 16.5289 7.1811 16.5957 7.13085C16.6626 7.08059 16.7135 7.01212 16.7424 6.93365C16.7713 6.85518 16.777 6.77003 16.7587 6.68842C16.7405 6.60681 16.6991 6.5322 16.6395 6.47352H16.6438ZM6.44384 13.804L8.3134 11.2257L9.02645 11.9344L6.44384 13.804ZM13.7004 6.55178L13.8091 4.88657L15.3438 6.42135L13.7004 6.55178Z" fill="white"/>
</svg>
