<svg width="20" height="21" viewBox="0 0 20 21" fill="none" xmlns="http://www.w3.org/2000/svg">
<rect y="0.5" width="20" height="20" rx="5" fill="#3B6CFF"/>
<g clip-path="url(#clip0_125_1093)">
<path d="M11.4233 10.809C11.8804 10.5108 12.2259 10.08 12.409 9.57919C12.5922 9.07864 12.6037 8.53442 12.4414 8.02728C12.2791 7.51982 11.9519 7.07584 11.5077 6.76036C11.0634 6.44489 10.5258 6.2749 9.97346 6.2749C9.42111 6.2749 8.88351 6.44521 8.43925 6.76036C7.995 7.07584 7.66782 7.51982 7.50552 8.02728C7.34321 8.53474 7.35476 9.07864 7.53791 9.57919C7.72107 10.0797 8.06685 10.5108 8.52362 10.809C7.81184 11.0865 7.20207 11.5616 6.77225 12.1737C6.34243 12.7858 6.11212 13.5069 6.11084 14.245V15.0959H13.829V14.245C13.829 13.5072 13.6 12.7864 13.1715 12.1743C12.7429 11.5622 12.1341 11.0868 11.423 10.809H11.4233Z" fill="white"/>
<path d="M6.94442 7.88753C7.11602 7.35054 7.46245 6.88047 7.93269 6.54678C7.94391 6.53861 7.95578 6.53106 7.96733 6.52321C7.75017 6.3639 7.5112 6.23193 7.25524 6.13201C7.62123 5.89321 7.89804 5.54789 8.04495 5.14695C8.19186 4.74601 8.20084 4.31019 8.07093 3.9036C7.94103 3.49732 7.67896 3.14163 7.32292 2.889C6.96687 2.63637 6.53641 2.5 6.09408 2.5C5.65174 2.5 5.22096 2.63637 4.86523 2.889C4.50951 3.14163 4.24712 3.49732 4.11722 3.9036C3.98731 4.30988 3.99629 4.7457 4.1432 5.14695C4.29011 5.54789 4.56692 5.89321 4.93291 6.13201C4.3626 6.35416 3.87408 6.73468 3.5299 7.22517C3.18572 7.71534 3.00128 8.29287 3 8.88422V9.56575H6.99285C6.98836 9.55381 6.98323 9.54219 6.97906 9.53025C6.785 9.00017 6.77313 8.42453 6.94474 7.88753H6.94442Z" fill="white"/>
<path d="M5.56486 14.2014C5.56646 13.4199 5.80992 12.6567 6.26476 12.0091C6.58681 11.5504 7.00476 11.1651 7.48847 10.8745C7.46569 10.8569 7.4426 10.8396 7.41918 10.823C7.06346 10.5703 6.63268 10.434 6.19002 10.434C5.74737 10.434 5.31691 10.5703 4.96118 10.823C4.60546 11.0756 4.34307 11.4313 4.21316 11.8376C4.08325 12.2438 4.09224 12.6797 4.23914 13.0809C4.38605 13.4818 4.66287 13.8272 5.02886 14.066C4.45855 14.2881 3.97003 14.6686 3.62585 15.1591C3.28167 15.6493 3.09723 16.2271 3.09595 16.8185V17.5H9.27865V16.8185C9.27865 16.2275 9.27415 15.9396 8.93094 15.4495C8.91747 15.43 8.89982 15.4165 8.8748 15.3904H5.56454V14.2017L5.56486 14.2014Z" fill="white"/>
<path d="M13.0162 7.88753C12.8426 7.35054 12.493 6.88047 12.018 6.54678C12.0064 6.53861 11.9945 6.53106 11.983 6.52321C12.2024 6.3639 12.4436 6.23193 12.7021 6.13201C12.3323 5.89321 12.0529 5.54789 11.9047 5.14695C11.7565 4.74601 11.7472 4.31019 11.8784 3.9036C12.0096 3.49732 12.2746 3.14163 12.6338 2.889C12.9931 2.63637 13.4283 2.5 13.8752 2.5C14.322 2.5 14.7569 2.63637 15.1165 2.889C15.4761 3.14163 15.7407 3.49732 15.8719 3.9036C16.0031 4.30988 15.9941 4.7457 15.8456 5.14695C15.6974 5.54789 15.4177 5.89321 15.0482 6.13201C15.6243 6.35416 16.1173 6.73468 16.465 7.22517C16.8127 7.71534 16.9991 8.29318 17 8.88454V9.56607H12.9674C12.9719 9.55413 12.977 9.5425 12.9815 9.53056C13.1775 9.00048 13.1897 8.42484 13.0162 7.88785V7.88753Z" fill="white"/>
<path d="M14.4099 14.2014C14.4083 13.4199 14.1623 12.6567 13.703 12.0091C13.3777 11.5504 12.9556 11.1651 12.4671 10.8745C12.4898 10.8569 12.5133 10.8396 12.537 10.823C12.8963 10.5703 13.3315 10.434 13.7784 10.434C14.2252 10.434 14.6601 10.5703 15.0197 10.823C15.3793 11.0756 15.6439 11.4313 15.7751 11.8376C15.9063 12.2438 15.8973 12.6797 15.7488 13.0809C15.6006 13.4818 15.3209 13.8272 14.9514 14.066C15.5275 14.2881 16.0205 14.6686 16.3682 15.1591C16.7159 15.6493 16.9023 16.2271 16.9032 16.8185V17.5H10.6589V16.8185C10.6589 16.2275 10.6634 15.9396 11.0102 15.4495C11.024 15.43 11.0416 15.4165 11.0669 15.3904H14.4103V14.2017L14.4099 14.2014Z" fill="white"/>
</g>
<defs>
<clipPath id="clip0_125_1093">
<rect width="14" height="15" fill="white" transform="translate(3 2.5)"/>
</clipPath>
</defs>
</svg>
