<svg width="18" height="17" viewBox="0 0 18 17" fill="none" xmlns="http://www.w3.org/2000/svg">
<rect x="0.5" width="17" height="17" rx="5" fill="#258150"/>
<path d="M7.91792 5.8909C8.52411 5.8909 9.01553 5.39948 9.01553 4.79329C9.01553 4.1871 8.52411 3.69568 7.91792 3.69568C7.31173 3.69568 6.82031 4.1871 6.82031 4.79329C6.82031 5.39948 7.31173 5.8909 7.91792 5.8909Z" fill="white"/>
<path d="M9.58842 10.4808L9.31863 10.9132L10.5752 11.7004C10.6163 11.7257 10.6629 11.7408 10.7111 11.7447C10.7593 11.7486 10.8076 11.741 10.8523 11.7226L11.1739 11.5784C11.2737 11.5348 11.3581 11.4621 11.4161 11.3698C11.4741 11.2775 11.503 11.17 11.4991 11.0611V10.7137C11.4965 10.6648 11.4825 10.6173 11.4581 10.5749C11.4337 10.5325 11.3996 10.4965 11.3586 10.4698L10.0984 9.68258L9.83603 10.1039L8.87885 9.49779L8.3282 6.63366C8.31547 6.57006 8.28989 6.50973 8.25304 6.45635C8.21618 6.40297 8.16882 6.35767 8.11385 6.32323L7.12711 5.72084C7.05488 5.67653 6.97163 5.65348 6.8869 5.65432H4.97255C4.8932 5.65453 4.81523 5.675 4.74602 5.71381C4.67682 5.75262 4.61868 5.80847 4.57711 5.87606L3.89342 7.00323C3.82971 7.1081 3.81027 7.234 3.83938 7.3532C3.86849 7.47241 3.94376 7.57517 4.04864 7.63888C4.15351 7.70259 4.2794 7.72202 4.39861 7.69292C4.51782 7.66381 4.62058 7.58853 4.68429 7.48366L4.73972 7.39127L5.37907 7.79779L5.16472 8.32258C5.12607 8.4268 5.10485 8.53668 5.1019 8.6478C5.06615 8.72274 5.04843 8.805 5.05016 8.88801L5.12777 11.1719L4.08929 12.3878C3.9943 12.5003 3.9476 12.6457 3.95937 12.7925C3.97113 12.9392 4.04041 13.0754 4.15211 13.1713C4.2076 13.2188 4.27193 13.2548 4.3414 13.2774C4.41087 13.2999 4.48411 13.3086 4.55691 13.3027C4.62972 13.2969 4.70065 13.2767 4.76564 13.2434C4.83063 13.21 4.88838 13.1642 4.93559 13.1084L6.11081 11.7447C6.20001 11.6426 6.24751 11.5107 6.24385 11.3752L6.21429 10.4624L6.97929 11.3604V12.7758C6.97929 12.9229 7.03769 13.0639 7.14165 13.1678C7.24561 13.2718 7.38661 13.3302 7.53364 13.3302C7.68066 13.3302 7.82166 13.2718 7.92562 13.1678C8.02958 13.0639 8.08798 12.9229 8.08798 12.7758V11.1571C8.0889 11.0221 8.04174 10.8911 7.95494 10.7876L6.69472 9.30931C6.77291 9.22772 6.83553 9.13255 6.8795 9.02845L6.9645 8.8141L7.92907 9.42388L8.00668 9.84518C8.02738 9.95016 8.08417 10.0446 8.16719 10.1121C8.25022 10.1796 8.35425 10.2159 8.46124 10.2147H8.54255C8.6058 10.2037 8.66594 10.1792 8.71887 10.1428C8.7718 10.1065 8.81628 10.0592 8.84929 10.0041L9.58842 10.4808ZM4.95777 7.0254L5.23124 6.57083H5.8632L5.53429 7.39127L4.95777 7.0254ZM7.11972 8.3928L7.53733 7.37279L7.80711 8.85105L7.11972 8.3928Z" fill="white"/>
<path d="M14.5592 12.9163C14.1896 12.4913 13.4505 11.767 12.7113 11.767C12.1533 11.767 11.3994 12.2622 11.1037 12.5467C11.0771 12.5735 11.0425 12.5908 11.0052 12.5962C10.9679 12.6015 10.9298 12.5945 10.8968 12.5763C10.6367 12.4364 10.349 12.3557 10.0542 12.3398C9.70678 12.3398 9.44808 12.6022 9.15982 12.9089C9.13523 12.9344 9.11867 12.9666 9.11218 13.0015C9.1057 13.0363 9.10959 13.0723 9.12336 13.1049C9.13713 13.1376 9.16018 13.1655 9.18965 13.1852C9.21913 13.2049 9.25373 13.2155 9.28917 13.2157H14.4187C14.4537 13.2163 14.4881 13.2068 14.5178 13.1883C14.5475 13.1699 14.5711 13.1432 14.586 13.1115C14.6008 13.0799 14.6062 13.0446 14.6015 13.0099C14.5967 12.9753 14.582 12.9428 14.5592 12.9163Z" fill="white"/>
</svg>
