<svg width="20" height="21" viewBox="0 0 20 21" fill="none" xmlns="http://www.w3.org/2000/svg">
<rect y="0.5" width="20" height="20" rx="5" fill="#14A8B2"/>
<path d="M4.88501 17.4999V7.31812H11.6265V9.09297H7.03771V11.5191H11.179V13.294H7.03771V17.4999H4.88501Z" fill="white"/>
<path d="M16.9057 5.8693C17.5472 6.25134 18 6.9752 18 7.60858C18 8.86528 16.9717 9.75 15.5 9.75C14.0283 9.75 13 8.80496 13 7.45778H14.434C14.434 8.01072 14.8774 8.40281 15.5 8.40281C16.1604 8.40281 16.6321 8.01072 16.6321 7.45778C16.6321 6.88472 16.1698 6.48257 15.5189 6.48257H15.0472V5.27614H15.5377C16.1226 5.27614 16.5283 4.91421 16.5283 4.40147C16.5283 3.92895 16.1321 3.59718 15.566 3.59718C15.0377 3.59718 14.6604 3.92895 14.6604 4.40147H13.2264C13.2264 3.13472 14.1887 2.25 15.566 2.25C16.9245 2.25 17.8868 3.0744 17.8868 4.25067C17.8868 4.83378 17.4811 5.50737 16.9057 5.8693Z" fill="white"/>
</svg>
