<svg width="20" height="21" viewBox="0 0 20 21" fill="none" xmlns="http://www.w3.org/2000/svg">
<rect y="0.5" width="20" height="20" rx="10" fill="white"/>
<path d="M11.8769 10.6683C12.4701 10.2634 12.9188 9.67739 13.157 8.99636C13.3952 8.31533 13.4104 7.57522 13.2003 6.88484C12.9903 6.19445 12.566 5.59022 11.99 5.16095C11.4139 4.73167 10.7164 4.5 10 4.5C9.28361 4.5 8.58613 4.73167 8.01006 5.16095C7.434 5.59022 7.00974 6.19445 6.79967 6.88484C6.5896 7.57522 6.60479 8.31533 6.84301 8.99636C7.08123 9.67739 7.52991 10.2634 8.1231 10.6683C7.20072 11.0453 6.41085 11.6911 5.85451 12.523C5.29817 13.355 5.00065 14.3353 5 15.3386V16.5H15V15.3386C14.9945 14.3364 14.6951 13.3582 14.1393 12.5272C13.5836 11.6962 12.7964 11.0494 11.8769 10.6683Z" fill="#0655F6"/>
</svg>
