<svg width="25" height="25" viewBox="0 0 25 25" fill="none" xmlns="http://www.w3.org/2000/svg">
    <rect width="25" height="25" rx="5" fill="#DC0000"/>
    <path d="M15.2011 6.98353V4.34766H9.22282V6.98353C7.69278 7.66792 6.44392 8.85663 5.68491 10.3511C4.92589 11.8455 4.70269 13.5551 5.0526 15.1943C5.4025 16.8336 6.30432 18.303 7.60738 19.3573C8.91044 20.4116 10.5358 20.9868 12.212 20.9868C13.8881 20.9868 15.5135 20.4116 16.8165 19.3573C18.1196 18.303 19.0214 16.8336 19.3713 15.1943C19.7212 13.5551 19.498 11.8455 18.739 10.3511C17.98 8.85663 16.7311 7.66792 15.2011 6.98353ZM12.212 19.6194C11.0296 19.6194 9.87373 19.2688 8.89061 18.6119C7.90749 17.955 7.14123 17.0213 6.68875 15.9289C6.23627 14.8365 6.11789 13.6345 6.34857 12.4748C6.57924 11.3152 7.14861 10.2499 7.98469 9.41386C8.82076 8.57778 9.88598 8.0084 11.0457 7.77773C12.2053 7.54706 13.4073 7.66546 14.4997 8.11794C15.5921 8.57042 16.5258 9.33666 17.1827 10.3198C17.8396 11.3029 18.1902 12.4587 18.1902 13.6411C18.1902 15.2267 17.5604 16.7473 16.4392 17.8684C15.3181 18.9895 13.7975 19.6194 12.212 19.6194Z" fill="white"/>
    <path d="M11.5326 13.3858L9.56525 15.4185L10.5381 16.3641L12.8913 13.9348V9.29346H11.5326V13.3858Z" fill="white"/>
</svg>
