<svg width="20" height="21" viewBox="0 0 20 21" fill="none" xmlns="http://www.w3.org/2000/svg">
<rect y="0.5" width="20" height="20" rx="5" fill="#FA21B8"/>
<path d="M15.678 9.20541H14.8764C14.6023 9.20333 14.3329 9.27864 14.0981 9.42301C13.8633 9.56739 13.6722 9.7752 13.5458 10.0235L12.4156 12.535C12.2708 12.2778 12.1002 12.0365 11.9066 11.8151L13.6019 8.24825L14.7682 8.21963C14.9286 8.2196 15.0857 8.17255 15.2206 8.08409C15.3556 7.99562 15.4629 7.86947 15.5297 7.7206L16.0467 7.03749C16.0777 6.97013 16.0912 6.89577 16.0859 6.82155C16.0806 6.74732 16.0566 6.67574 16.0164 6.61369C15.9761 6.55164 15.9209 6.50122 15.856 6.46727C15.7911 6.43331 15.7188 6.41698 15.6459 6.41983H14.8444C14.5701 6.41729 14.3006 6.49241 14.0657 6.63684C13.8308 6.78126 13.6397 6.98932 13.5138 7.23792L11.4658 11.3979C11.1085 11.0798 10.7023 10.8242 10.2634 10.6412C10.7717 10.2886 11.1559 9.77903 11.3595 9.18724C11.5632 8.59544 11.5756 7.95259 11.3949 7.35308C11.2142 6.75358 10.8499 6.22899 10.3556 5.85634C9.86121 5.48368 9.26283 5.28259 8.64827 5.28259C8.03371 5.28259 7.43533 5.48368 6.94099 5.85634C6.44665 6.22899 6.08241 6.75358 5.90171 7.35308C5.72101 7.95259 5.73339 8.59544 5.93703 9.18724C6.14067 9.77903 6.52483 10.2886 7.03314 10.6412C6.24026 10.9697 5.56132 11.532 5.08302 12.2562C4.60473 12.9804 4.34879 13.8337 4.3479 14.707V15.7174H12.9487V14.707C12.9491 14.1727 12.8527 13.6429 12.6641 13.1445L13.5699 11.0338L14.7361 11.0052C14.8962 11.006 15.0532 10.9598 15.1882 10.872C15.3232 10.7843 15.4307 10.6587 15.4976 10.5103L16.0347 9.8067C16.0609 9.74352 16.0721 9.67489 16.0672 9.60645C16.0624 9.53801 16.0417 9.47171 16.0069 9.41302C15.9721 9.35432 15.9241 9.30489 15.8669 9.2688C15.8097 9.23271 15.745 9.21098 15.678 9.20541Z" fill="white"/>
</svg>
