<svg width="20" height="20" viewBox="0 0 20 20" fill="none" xmlns="http://www.w3.org/2000/svg">
<path d="M0 5C0 2.23858 2.23858 0 5 0H15C17.7614 0 20 2.23858 20 5V15C20 17.7614 17.7614 20 15 20H5C2.23858 20 0 17.7614 0 15V5Z" fill="#0931AA"/>
<path d="M11.8769 10.1683C12.4701 9.76343 12.9188 9.17739 13.157 8.49636C13.3952 7.81533 13.4104 7.07522 13.2003 6.38484C12.9903 5.69445 12.566 5.09022 11.99 4.66095C11.4139 4.23167 10.7164 4 10 4C9.28361 4 8.58613 4.23167 8.01006 4.66095C7.434 5.09022 7.00974 5.69445 6.79967 6.38484C6.5896 7.07522 6.60479 7.81533 6.84301 8.49636C7.08123 9.17739 7.52991 9.76343 8.1231 10.1683C7.20072 10.5453 6.41085 11.1911 5.85451 12.023C5.29817 12.855 5.00065 13.8353 5 14.8386V16H15V14.8386C14.9945 13.8364 14.6951 12.8582 14.1393 12.0272C13.5836 11.1962 12.7964 10.5494 11.8769 10.1683Z" fill="white"/>
</svg>
