<svg width="25" height="25" viewBox="0 0 25 25" fill="none" xmlns="http://www.w3.org/2000/svg">
    <rect width="25" height="25" rx="5" fill="#FA21B8"/>
    <path d="M19.5974 10.8815H18.5954C18.2528 10.879 17.9161 10.9731 17.6226 11.1536C17.329 11.334 17.0901 11.5938 16.9322 11.9042L15.5194 15.0436C15.3384 14.722 15.1252 14.4204 14.8832 14.1437L17.0023 9.6851L18.4602 9.64932C18.6607 9.64929 18.857 9.59048 19.0257 9.4799C19.1945 9.36932 19.3286 9.21162 19.412 9.02553L20.0583 8.17165C20.097 8.08745 20.1139 7.9945 20.1073 7.90172C20.1007 7.80894 20.0707 7.71946 20.0204 7.6419C19.9701 7.56434 19.901 7.50131 19.8199 7.45887C19.7388 7.41643 19.6484 7.39601 19.5573 7.39957H18.5553C18.2126 7.3964 17.8757 7.4903 17.582 7.67083C17.2884 7.85136 17.0496 8.11144 16.8921 8.42218L14.3321 13.6221C13.8855 13.2246 13.3777 12.905 12.8292 12.6762C13.4646 12.2355 13.9448 11.5986 14.1993 10.8588C14.4539 10.1191 14.4694 9.31553 14.2435 8.56614C14.0176 7.81676 13.5623 7.16103 12.9443 6.69521C12.3264 6.22939 11.5785 5.97803 10.8102 5.97803C10.042 5.97803 9.29407 6.22939 8.67615 6.69521C8.05822 7.16103 7.60292 7.81676 7.37704 8.56614C7.15117 9.31553 7.16665 10.1191 7.4212 10.8588C7.67575 11.5986 8.15595 12.2355 8.79133 12.6762C7.80023 13.0869 6.95155 13.7897 6.35369 14.695C5.75582 15.6003 5.4359 16.6669 5.43478 17.7586V19.0215H16.1857V17.7586C16.1863 17.0907 16.0657 16.4285 15.83 15.8054L16.9622 13.1671L18.4201 13.1313C18.6202 13.1323 18.8164 13.0745 18.9852 12.9648C19.154 12.8551 19.2882 12.6981 19.3719 12.5126L20.0432 11.6332C20.076 11.5542 20.09 11.4684 20.084 11.3829C20.0779 11.2973 20.0521 11.2144 20.0086 11.1411C19.965 11.0677 19.905 11.0059 19.8336 10.9608C19.7621 10.9157 19.6812 10.8885 19.5974 10.8815Z" fill="white"/>
</svg>
