<svg width="25" height="25" viewBox="0 0 25 25" fill="none" xmlns="http://www.w3.org/2000/svg">
    <rect width="25" height="25" rx="5" fill="#BF00FF"/>
    <path d="M2.94118 22.036V4.41162H6.86275V18.1522H14.7059V22.0587L2.94118 22.036Z" fill="white"/>
    <path d="M20.8907 7.14804C21.8341 7.74732 22.5 8.88278 22.5 9.87632C22.5 11.8476 20.9878 13.2354 18.8235 13.2354C16.6593 13.2354 15.1471 11.753 15.1471 9.63976H17.2558C17.2558 10.5071 17.9079 11.1222 18.8235 11.1222C19.7947 11.1222 20.4884 10.5071 20.4884 9.63976C20.4884 8.74085 19.8086 8.11003 18.8513 8.11003H18.1576V6.21759H18.879C19.7392 6.21759 20.3357 5.64986 20.3357 4.84557C20.3357 4.10436 19.7531 3.58393 18.9206 3.58393C18.1437 3.58393 17.5888 4.10436 17.5888 4.84557H15.48C15.48 2.8585 16.8951 1.4707 18.9206 1.4707C20.9184 1.4707 22.3335 2.76387 22.3335 4.60901C22.3335 5.52369 21.737 6.58031 20.8907 7.14804Z" fill="white"/>
</svg>
