<svg width="25" height="25" viewBox="0 0 25 25" fill="none" xmlns="http://www.w3.org/2000/svg">
    <rect width="25" height="25" rx="5" fill="#58B81C"/>
    <path d="M12.6739 7.87102H11.7445C11.7037 7.57896 11.7037 7.28264 11.7445 6.99059C11.7782 6.7858 11.8442 6.58766 11.9402 6.40362C12.0174 6.25283 12.1204 6.11672 12.2445 6.00145C12.3587 5.89819 12.4728 5.79493 12.5761 5.69167C12.6779 5.59571 12.7657 5.48596 12.8369 5.36559C12.9109 5.23301 12.9467 5.08249 12.9402 4.9308C12.9505 4.73785 12.897 4.54687 12.788 4.38732C12.7312 4.31026 12.655 4.24957 12.5672 4.2114C12.4794 4.17322 12.3831 4.15892 12.288 4.16993C12.1861 4.16869 12.0851 4.18886 11.9915 4.22911C11.8978 4.26937 11.8137 4.32882 11.7445 4.40363C11.579 4.61023 11.4889 4.86713 11.4891 5.13188H10.4728C10.4835 4.81841 10.5555 4.51008 10.6847 4.22428C10.7927 3.99939 10.9463 3.79947 11.1358 3.63732C11.3054 3.49507 11.5038 3.39124 11.7174 3.33297C11.9191 3.27795 12.128 3.25412 12.3369 3.26232C12.5669 3.27158 12.7941 3.31556 13.0108 3.39276C13.2109 3.45867 13.3957 3.56401 13.5543 3.70255C13.7078 3.83566 13.8302 4.00075 13.913 4.18624C14.003 4.39167 14.0475 4.61416 14.0434 4.83842C14.0509 5.07953 14.0103 5.31971 13.9239 5.54493C13.8534 5.71014 13.756 5.86254 13.6358 5.99601C13.5238 6.11306 13.402 6.22035 13.2717 6.31668C13.1434 6.41156 13.0283 6.52303 12.9293 6.64819C12.8221 6.78603 12.7461 6.94551 12.7065 7.11559C12.649 7.36322 12.6379 7.61936 12.6739 7.87102ZM12.8043 8.5395V9.69711H11.6141V8.5395H12.8043Z" fill="white"/>
    <path d="M14.0598 15.8547C14.4769 15.5711 14.7922 15.1613 14.9593 14.6854C15.1263 14.2094 15.1364 13.6925 14.9881 13.2104C14.8397 12.7283 14.5407 12.3064 14.135 12.0068C13.7293 11.7071 13.2381 11.5454 12.7337 11.5454C12.2293 11.5454 11.7382 11.7071 11.3324 12.0068C10.9267 12.3064 10.6277 12.7283 10.4793 13.2104C10.331 13.6925 10.3411 14.2094 10.5082 14.6854C10.6752 15.1613 10.9905 15.5711 11.4076 15.8547C10.8814 16.0723 10.4153 16.4134 10.0489 16.8493C9.50583 17.4838 9.20711 18.2913 9.20654 19.1265V19.9363H16.2718V19.1265C16.2732 18.2789 15.966 17.4598 15.4076 16.8221C15.0412 16.3975 14.5793 16.066 14.0598 15.8547Z" fill="white"/>
    <path d="M19.3859 15.8548C19.7043 15.6382 19.9648 15.347 20.1446 15.0065C20.3245 14.666 20.4183 14.2867 20.4178 13.9017C20.4174 13.5166 20.3226 13.1375 20.1419 12.7975C19.9612 12.4575 19.6999 12.1669 19.381 11.9511C19.0621 11.7353 18.6952 11.6009 18.3123 11.5595C17.9295 11.5182 17.5424 11.5712 17.1847 11.714C16.8271 11.8567 16.5099 12.0849 16.2608 12.3785C16.0116 12.6721 15.8381 13.0222 15.7555 13.3983C15.7162 13.5639 15.6961 13.7335 15.6957 13.9037C15.6988 14.0737 15.7189 14.2431 15.7555 14.4091C15.8847 14.9984 16.2348 15.5157 16.7337 15.8548C16.4409 15.9786 16.1651 16.1393 15.9131 16.3331C16.5947 17.1037 16.9699 18.0977 16.9674 19.1265V19.9363H21.587V19.1265C21.5862 18.4243 21.3764 17.7382 20.9845 17.1556C20.5925 16.573 20.036 16.1201 19.3859 15.8548Z" fill="white"/>
    <path d="M8.69018 15.8548C8.95787 15.6711 9.18515 15.4346 9.35805 15.1598C9.53096 14.885 9.64583 14.5778 9.6956 14.257C9.7039 14.1394 9.7039 14.0213 9.6956 13.9037C9.69283 13.7854 9.68194 13.6673 9.663 13.5505C9.60493 13.1626 9.45106 12.7953 9.21532 12.4819C8.97957 12.1685 8.6694 11.9188 8.31286 11.7554C7.95632 11.592 7.56465 11.5201 7.17333 11.5462C6.78201 11.5723 6.40336 11.6956 6.07168 11.9049C5.73999 12.1142 5.46574 12.4029 5.27371 12.7448C5.08168 13.0868 4.97792 13.4712 4.97188 13.8634C4.96584 14.2555 5.05771 14.643 5.23911 14.9907C5.42052 15.3384 5.68576 15.6354 6.01084 15.8548C5.36139 16.1186 4.80493 16.5694 4.41209 17.15C4.01924 17.7305 3.8077 18.4147 3.80432 19.1157V19.9255H8.48366V19.1157C8.48212 18.0958 8.84881 17.1096 9.51628 16.3385C9.2641 16.1406 8.98619 15.9779 8.69018 15.8548Z" fill="white"/>
</svg>
