<svg width="25" height="25" viewBox="0 0 25 25" fill="none" xmlns="http://www.w3.org/2000/svg">
    <rect width="25" height="25" rx="12.5" fill="white"/>
    <path d="M14.1892 12.6543C14.7231 12.2831 15.1269 11.7459 15.3413 11.1217C15.5557 10.4974 15.5694 9.81895 15.3803 9.1861C15.1912 8.55325 14.8094 7.99937 14.291 7.60587C13.7725 7.21236 13.1447 7 12.5 7C11.8553 7 11.2275 7.21236 10.7091 7.60587C10.1906 7.99937 9.80876 8.55325 9.6197 9.1861C9.43064 9.81895 9.44431 10.4974 9.65871 11.1217C9.87311 11.7459 10.2769 12.2831 10.8108 12.6543C9.98064 12.9999 9.26976 13.5918 8.76906 14.3544C8.26836 15.117 8.00059 16.0157 8 16.9353V18H17V16.9353C16.9951 16.0167 16.7256 15.12 16.2254 14.3583C15.7253 13.5965 15.0168 13.0036 14.1892 12.6543Z" fill="#0655F6"/>
</svg>
