<svg width="20" height="21" viewBox="0 0 20 21" fill="none" xmlns="http://www.w3.org/2000/svg">
<rect y="0.5" width="20" height="20" rx="5" fill="#DC0000"/>
<path d="M12.1609 6.08697V3.97827H7.37831V6.08697C6.15427 6.63448 5.15519 7.58545 4.54798 8.78099C3.94076 9.97654 3.7622 11.3443 4.04213 12.6556C4.32205 13.967 5.04351 15.1426 6.08596 15.986C7.1284 16.8294 8.4287 17.2896 9.76961 17.2896C11.1105 17.2896 12.4108 16.8294 13.4533 15.986C14.4957 15.1426 15.2172 13.967 15.4971 12.6556C15.777 11.3443 15.5985 9.97654 14.9913 8.78099C14.384 7.58545 13.385 6.63448 12.1609 6.08697ZM9.76961 16.1957C8.8237 16.1957 7.89904 15.9152 7.11254 15.3896C6.32604 14.8641 5.71304 14.1172 5.35105 13.2433C4.98907 12.3694 4.89436 11.4078 5.0789 10.48C5.26344 9.55228 5.71894 8.70009 6.3878 8.03123C7.05666 7.36237 7.90884 6.90687 8.83657 6.72233C9.76431 6.53779 10.7259 6.63251 11.5998 6.9945C12.4737 7.35648 13.2207 7.96947 13.7462 8.75597C14.2717 9.54247 14.5522 10.4671 14.5522 11.4131C14.5522 12.6815 14.0483 13.898 13.1514 14.7949C12.2545 15.6918 11.038 16.1957 9.76961 16.1957Z" fill="white"/>
<path d="M9.22601 11.2087L7.6521 12.8348L8.43035 13.5913L10.313 11.6479V7.93481H9.22601V11.2087Z" fill="white"/>
</svg>
