<svg width="25" height="25" viewBox="0 0 25 25" fill="none" xmlns="http://www.w3.org/2000/svg">
    <rect width="25" height="25" rx="5" fill="#8DA9FF"/>
    <path d="M11.0543 12.5495C11.586 12.1895 11.9881 11.6685 12.2016 11.063C12.415 10.4575 12.4287 9.79952 12.2404 9.18572C12.0521 8.57192 11.6719 8.03472 11.1557 7.65306C10.6394 7.2714 10.0143 7.06543 9.37227 7.06543C8.73025 7.06543 8.10517 7.2714 7.5889 7.65306C7.07263 8.03472 6.69241 8.57192 6.50415 9.18572C6.31589 9.79952 6.3295 10.4575 6.54299 11.063C6.75649 11.6685 7.15859 12.1895 7.69021 12.5495C6.86357 12.8847 6.15569 13.4588 5.65711 14.1985C5.15852 14.9381 4.89188 15.8097 4.8913 16.7017V17.7343H13.8533V16.7017C13.8483 15.8107 13.58 14.941 13.0819 14.2022C12.5839 13.4633 11.8784 12.8883 11.0543 12.5495Z" fill="white"/>
    <path d="M17.7228 12.5493C18.1271 12.2754 18.4584 11.9071 18.688 11.4762C18.9176 11.0453 19.0385 10.5649 19.0404 10.0766C19.0422 9.58839 18.9248 9.10709 18.6984 8.67449C18.4721 8.24189 18.1435 7.87108 17.7413 7.59425C17.3391 7.31742 16.8755 7.14293 16.3905 7.08594C15.9056 7.02895 15.4142 7.09118 14.9587 7.26722C14.5033 7.44326 14.0978 7.72779 13.7772 8.09612C13.4567 8.46444 13.231 8.90542 13.1195 9.38079C13.0671 9.60716 13.0397 9.83863 13.038 10.071C13.0377 10.3017 13.065 10.5316 13.1195 10.7558C13.2922 11.4868 13.7324 12.1266 14.3533 12.5493C13.9778 12.7018 13.625 12.9048 13.3043 13.1525C14.186 14.1238 14.6726 15.3897 14.6685 16.7014V17.7341H20.5163V16.7014C20.5161 15.8101 20.2503 14.939 19.7527 14.1994C19.2552 13.4598 18.5484 12.8853 17.7228 12.5493Z" fill="white"/>
</svg>
