<svg width="24" height="24" viewBox="0 0 24 24" fill="none" xmlns="http://www.w3.org/2000/svg">
    <path fill-rule="evenodd" clip-rule="evenodd" d="M5.67206 4.09418C7.35381 2.43705 9.61843 1.50563 11.9794 1.50003C14.3404 1.49442 16.6095 2.41506 18.2991 4.06418H18.3011L18.3331 4.09418C21.8781 7.58118 21.8851 13.1822 18.3751 16.6342L12.7041 22.2122C12.517 22.3963 12.265 22.4995 12.0026 22.4995C11.7401 22.4995 11.4881 22.3963 11.3011 22.2122L5.63006 16.6342C4.79749 15.8202 4.13595 14.8481 3.6843 13.7749C3.23266 12.7017 3 11.549 3 10.3847C3 9.22031 3.23266 8.06769 3.6843 6.99449C4.13595 5.92129 4.79749 4.94916 5.63006 4.13518L5.67206 4.09418ZM12.0001 6.49918C11.6061 6.49918 11.216 6.57678 10.852 6.72754C10.488 6.8783 10.1573 7.09928 9.87874 7.37786C9.60016 7.65643 9.37919 7.98715 9.22842 8.35113C9.07766 8.71511 9.00006 9.10521 9.00006 9.49918C9.00006 9.89314 9.07766 10.2833 9.22842 10.6472C9.37919 11.0112 9.60016 11.3419 9.87874 11.6205C10.1573 11.8991 10.488 12.1201 10.852 12.2708C11.216 12.4216 11.6061 12.4992 12.0001 12.4992C12.7957 12.4992 13.5588 12.1831 14.1214 11.6205C14.684 11.0579 15.0001 10.2948 15.0001 9.49918C15.0001 8.70353 14.684 7.94047 14.1214 7.37786C13.5588 6.81525 12.7957 6.49918 12.0001 6.49918Z" fill="#1F1F1F"/>
</svg>
