<svg width="8" height="7" viewBox="0 0 8 7" fill="none" xmlns="http://www.w3.org/2000/svg">
<path d="M6.90557 3.45211L6.32845 0.736842H6.59932C6.80279 0.736842 6.96774 0.571895 6.96774 0.368421C6.96774 0.164948 6.80279 0 6.59932 0H2.43556C1.62167 0 0.961877 0.659791 0.961877 1.47368H0.368422C0.164948 1.47368 0 1.63863 0 1.84211C0 2.04558 0.164948 2.21053 0.368421 2.21053H0.961877V3.51474C0.740988 3.72158 0.564162 3.97478 0.442902 4.25788C0.321643 4.54098 0.258664 4.84763 0.258065 5.15789V5.89474H0.961877C0.961877 6.18787 1.0731 6.469 1.27109 6.67628C1.46908 6.88355 1.7376 7 2.0176 7C2.29759 7 2.56612 6.88355 2.7641 6.67628C2.96209 6.469 3.07331 6.18787 3.07331 5.89474H5.18475C5.18475 6.18787 5.29598 6.469 5.49396 6.67628C5.69195 6.88355 5.96047 7 6.24047 7C6.52046 7 6.78899 6.88355 6.98697 6.67628C7.18496 6.469 7.29619 6.18787 7.29619 5.89474H8V5.15789C8.00007 4.79191 7.896 4.4342 7.70108 4.13039C7.50616 3.82658 7.22921 3.59045 6.90557 3.45211ZM2.0176 6.44737C1.91319 6.44737 1.81114 6.41496 1.72433 6.35423C1.63753 6.29351 1.56987 6.2072 1.52992 6.10622C1.48996 6.00524 1.47951 5.89412 1.49988 5.78692C1.52025 5.67972 1.57052 5.58125 1.64434 5.50397C1.71816 5.42668 1.81222 5.37405 1.91462 5.35272C2.01701 5.3314 2.12314 5.34235 2.2196 5.38417C2.31605 5.426 2.39849 5.49683 2.45649 5.58771C2.5145 5.67859 2.54545 5.78544 2.54545 5.89474C2.54545 6.0413 2.48984 6.18187 2.39085 6.28551C2.29186 6.38915 2.15759 6.44737 2.0176 6.44737ZM5.67742 3.63462L4.96657 2.68211L5.18345 2.5302C5.34174 2.41933 5.38496 2.20364 5.2816 2.04034C5.17131 1.86609 4.93791 1.81912 4.76881 1.93715L3.77924 2.62782C3.62056 2.73857 3.5771 2.95456 3.68059 3.11806C3.79076 3.29212 4.02382 3.33922 4.19294 3.22159L4.38592 3.08737L4.79062 3.72842L4.48094 4.05263H3.4956L1.66569 1.47368V0.736842H5.60704L6.15249 3.31579M6.24047 6.44737C6.13607 6.44737 6.03401 6.41496 5.94721 6.35423C5.8604 6.29351 5.79274 6.2072 5.75279 6.10622C5.71284 6.00524 5.70238 5.89412 5.72275 5.78692C5.74312 5.67972 5.79339 5.58125 5.86722 5.50397C5.94104 5.42668 6.03509 5.37405 6.13749 5.35272C6.23988 5.3314 6.34602 5.34235 6.44247 5.38417C6.53893 5.426 6.62137 5.49683 6.67937 5.58771C6.73737 5.67859 6.76833 5.78544 6.76833 5.89474C6.76833 6.0413 6.71271 6.18187 6.61372 6.28551C6.51473 6.38915 6.38047 6.44737 6.24047 6.44737Z" fill="#444444"/>
</svg>
