<svg width="20" height="20" viewBox="0 0 20 20" fill="none" xmlns="http://www.w3.org/2000/svg">
<path d="M10 10C15.5228 10 20 12.2386 20 15C20 17.7614 15.5228 20 10 20C4.47721 20 3.24713e-05 17.7614 0 15C0 12.2386 4.47719 10 10 10ZM14.5 12.5C13.3954 12.5 12.5 13.1716 12.5 14C12.5002 14.8283 13.3955 15.5 14.5 15.5C15.6044 15.5 16.4998 14.8283 16.5 14C16.5 13.1716 15.6045 12.5 14.5 12.5Z" fill="white"/>
<path d="M5.13698 0.137901C4.66079 -0.0785478 4.10725 -0.0382185 3.66747 0.244965C3.22768 0.528148 2.96191 1.01538 2.96191 1.53846V14.9999C2.96191 15.8496 3.6507 16.5384 4.50037 16.5384C5.35003 16.5384 6.03882 15.8496 6.03882 14.9999V7.52905L10.6369 5.43899C11.1862 5.18935 11.5388 4.64173 11.5388 4.03844C11.5388 3.43515 11.1862 2.88753 10.6369 2.63788L5.13698 0.137901Z" fill="white"/>
</svg>
