<svg width="22" height="19" viewBox="0 0 22 19" fill="none" xmlns="http://www.w3.org/2000/svg">
<path d="M3.11 9.37L4.75 2H4V0H20V4H22V6H20V9.54C20.6277 10.1014 21.1302 10.7887 21.4748 11.5571C21.8193 12.3255 21.9983 13.1579 22 14V16H20C20 16.7956 19.6839 17.5587 19.1213 18.1213C18.5587 18.6839 17.7956 19 17 19C16.2044 19 15.4413 18.6839 14.8787 18.1213C14.3161 17.5587 14 16.7956 14 16H8C8 16.7956 7.68393 17.5587 7.12132 18.1213C6.55871 18.6839 5.79565 19 5 19C4.20435 19 3.44129 18.6839 2.87868 18.1213C2.31607 17.5587 2 16.7956 2 16H0V14C-0.000192642 13.0066 0.295523 12.0357 0.849428 11.2111C1.40333 10.3864 2.19032 9.7455 3.11 9.37ZM17 17.5C17.2967 17.5 17.5867 17.412 17.8334 17.2472C18.08 17.0824 18.2723 16.8481 18.3858 16.574C18.4994 16.2999 18.5291 15.9983 18.4712 15.7074C18.4133 15.4164 18.2704 15.1491 18.0607 14.9393C17.8509 14.7296 17.5836 14.5867 17.2926 14.5288C17.0017 14.4709 16.7001 14.5007 16.426 14.6142C16.1519 14.7277 15.9176 14.92 15.7528 15.1666C15.588 15.4133 15.5 15.7033 15.5 16C15.5 16.3978 15.658 16.7794 15.9393 17.0607C16.2206 17.342 16.6022 17.5 17 17.5ZM7.47 9L8.62 7.28L7.2 6.33L8.3 4.67L12.8 7.67L11.7 9.33L10.27 8.38L9.12 10.12L10 11H12.8L18 4V2H6.8L5.25 9H7.47ZM5 17.5C5.29667 17.5 5.58668 17.412 5.83335 17.2472C6.08003 17.0824 6.27229 16.8481 6.38582 16.574C6.49935 16.2999 6.52906 15.9983 6.47118 15.7074C6.4133 15.4164 6.27044 15.1491 6.06066 14.9393C5.85088 14.7296 5.58361 14.5867 5.29263 14.5288C5.00166 14.4709 4.70007 14.5007 4.42598 14.6142C4.15189 14.7277 3.91762 14.92 3.7528 15.1666C3.58797 15.4133 3.5 15.7033 3.5 16C3.5 16.3978 3.65804 16.7794 3.93934 17.0607C4.22065 17.342 4.60217 17.5 5 17.5Z" fill="white"/>
</svg>
