<svg width="24" height="24" viewBox="0 0 24 24" fill="none" xmlns="http://www.w3.org/2000/svg">
<g id="icon">
<path id="Vector" d="M4.11 12.37L5.75 5H5V3H21V7H23V9H21V12.54C21.6277 13.1014 22.1302 13.7887 22.4748 14.5571C22.8193 15.3255 22.9983 16.1579 23 17V19H21C21 19.7956 20.6839 20.5587 20.1213 21.1213C19.5587 21.6839 18.7956 22 18 22C17.2044 22 16.4413 21.6839 15.8787 21.1213C15.3161 20.5587 15 19.7956 15 19H9C9 19.7956 8.68393 20.5587 8.12132 21.1213C7.55871 21.6839 6.79565 22 6 22C5.20435 22 4.44129 21.6839 3.87868 21.1213C3.31607 20.5587 3 19.7956 3 19H1V17C0.999807 16.0066 1.29552 15.0357 1.84943 14.2111C2.40333 13.3864 3.19032 12.7455 4.11 12.37ZM18 20.5C18.2967 20.5 18.5867 20.412 18.8334 20.2472C19.08 20.0824 19.2723 19.8481 19.3858 19.574C19.4994 19.2999 19.5291 18.9983 19.4712 18.7074C19.4133 18.4164 19.2704 18.1491 19.0607 17.9393C18.8509 17.7296 18.5836 17.5867 18.2926 17.5288C18.0017 17.4709 17.7001 17.5007 17.426 17.6142C17.1519 17.7277 16.9176 17.92 16.7528 18.1666C16.588 18.4133 16.5 18.7033 16.5 19C16.5 19.3978 16.658 19.7794 16.9393 20.0607C17.2206 20.342 17.6022 20.5 18 20.5ZM8.47 12L9.62 10.28L8.2 9.33L9.3 7.67L13.8 10.67L12.7 12.33L11.27 11.38L10.12 13.12L11 14H13.8L19 7V5H7.8L6.25 12H8.47ZM6 20.5C6.29667 20.5 6.58668 20.412 6.83335 20.2472C7.08003 20.0824 7.27229 19.8481 7.38582 19.574C7.49935 19.2999 7.52906 18.9983 7.47118 18.7074C7.4133 18.4164 7.27044 18.1491 7.06066 17.9393C6.85088 17.7296 6.58361 17.5867 6.29263 17.5288C6.00166 17.4709 5.70007 17.5007 5.42598 17.6142C5.15189 17.7277 4.91762 17.92 4.7528 18.1666C4.58797 18.4133 4.5 18.7033 4.5 19C4.5 19.3978 4.65804 19.7794 4.93934 20.0607C5.22065 20.342 5.60217 20.5 6 20.5Z" fill="white"/>
</g>
</svg>
