<svg width="24" height="24" viewBox="0 0 24 24" fill="none" xmlns="http://www.w3.org/2000/svg">
<g id="icon">
<path id="Vector" d="M16.1111 16V13.6H10.6667V10.4H16.1111V8L20 12L16.1111 16ZM14.5556 4C14.9681 4 15.3638 4.16857 15.6555 4.46863C15.9472 4.76869 16.1111 5.17565 16.1111 5.6V7.2H14.5556V5.6H7.55556V18.4H14.5556V16.8H16.1111V18.4C16.1111 18.8243 15.9472 19.2313 15.6555 19.5314C15.3638 19.8314 14.9681 20 14.5556 20H7.55556C7.143 20 6.74733 19.8314 6.45561 19.5314C6.16389 19.2313 6 18.8243 6 18.4V5.6C6 5.17565 6.16389 4.76869 6.45561 4.46863C6.74733 4.16857 7.143 4 7.55556 4H14.5556Z" fill="white"/>
</g>
</svg>
