<svg width="19" height="17" viewBox="0 0 19 17" fill="none" xmlns="http://www.w3.org/2000/svg">
<path d="M0 1.41667C0 0.634263 0.472588 0 1.05556 0H17.9444C18.5274 0 19 0.634263 19 1.41667C19 2.19907 18.5274 2.83333 17.9444 2.83333H1.05556C0.472589 2.83333 0 2.19907 0 1.41667Z" fill="white"/>
<path d="M0 8.5C0 7.7176 0.472588 7.08333 1.05556 7.08333H17.9444C18.5274 7.08333 19 7.7176 19 8.5C19 9.2824 18.5274 9.91667 17.9444 9.91667H1.05556C0.472589 9.91667 0 9.2824 0 8.5Z" fill="white"/>
<path d="M0 15.5833C0 14.8009 0.472588 14.1667 1.05556 14.1667H17.9444C18.5274 14.1667 19 14.8009 19 15.5833C19 16.3657 18.5274 17 17.9444 17H1.05556C0.472589 17 0 16.3657 0 15.5833Z" fill="white"/>
</svg>
