<svg width="19" height="19" viewBox="0 0 19 19" fill="none" xmlns="http://www.w3.org/2000/svg">
<path d="M9.5 9.5C14.7466 9.50002 19 11.6267 19 14.25C19 16.8733 14.7466 19 9.5 19C4.25335 19 3.09245e-05 16.8733 0 14.25C0 11.6267 4.25333 9.5 9.5 9.5ZM13.7754 11.875C12.7261 11.875 11.875 12.5128 11.875 13.2998C11.875 14.0868 12.7261 14.7246 13.7754 14.7246C14.8245 14.7244 15.6748 14.0867 15.6748 13.2998C15.6748 12.5129 14.8245 11.8752 13.7754 11.875Z" fill="#444444"/>
<path d="M4.88003 0.131006C4.42766 -0.0746204 3.90179 -0.0363075 3.484 0.232717C3.0662 0.501741 2.81372 0.964615 2.81372 1.46153V14.2499C2.81372 15.0571 3.46807 15.7114 4.27525 15.7114C5.08243 15.7114 5.73678 15.0571 5.73678 14.2499V7.1526L10.105 5.16705C10.6268 4.92988 10.9617 4.40965 10.9617 3.83652C10.9617 3.26339 10.6268 2.74315 10.105 2.50599L4.88003 0.131006Z" fill="#444444"/>
</svg>
