<svg width="10" height="10" viewBox="0 0 10 10" fill="none" xmlns="http://www.w3.org/2000/svg">
<path d="M9.85227 9.14198L7.28077 6.57028C7.81956 5.87975 8.14189 5.01225 8.14189 4.07048C8.14189 1.82666 6.31537 0 4.07094 0C1.82651 0 0 1.82666 0 4.07127C0 6.31587 1.82651 8.14253 4.07094 8.14253C5.01264 8.14253 5.88008 7.82018 6.57055 7.28135L9.14205 9.85305C9.24001 9.95102 9.36878 10 9.49755 10C9.62632 10 9.7551 9.95102 9.85306 9.85305C10.049 9.65711 10.049 9.33871 9.85306 9.14198H9.85227ZM1.0049 4.07127C1.0049 2.3805 2.38031 1.00498 4.07094 1.00498C5.76157 1.00498 7.13699 2.3805 7.13699 4.07127C7.13699 5.76203 5.76157 7.13755 4.07094 7.13755C2.38031 7.13755 1.0049 5.76203 1.0049 4.07127Z" fill="#1F1F1F"/>
</svg>
