<svg width="19" height="19" viewBox="0 0 19 19" fill="none" xmlns="http://www.w3.org/2000/svg">
<path d="M10.165 19H8.83301V16.5117H10.165V19ZM5.0127 14.9307L3.25391 16.6904L2.31152 15.748L4.07031 13.9883L5.0127 14.9307ZM16.6885 15.7461L15.7461 16.6885L13.9873 14.9297L14.9297 13.9873L16.6885 15.7461ZM9.49902 3.54492C12.7875 3.54492 15.4531 6.21057 15.4531 9.49902C15.4531 12.7875 12.7875 15.4531 9.49902 15.4531C6.21059 15.4531 3.54492 12.7875 3.54492 9.49902C3.54496 6.2106 6.21061 3.54498 9.49902 3.54492ZM9.49902 5.08398C7.06019 5.08405 5.08203 7.06212 5.08203 9.50098C5.08211 11.9398 7.05849 13.9179 9.49902 13.918V5.08398ZM2.4873 10.166H0V8.83301H2.4873V10.166ZM19 10.166H16.5127V8.83301H19V10.166ZM5.01367 4.07031L4.07129 5.0127L2.31152 3.25391L3.25391 2.31152L5.01367 4.07031ZM16.6895 3.25391L14.9297 5.0127L13.9873 4.07031L15.7471 2.31152L16.6895 3.25391ZM10.165 2.4873H8.83301V0H10.165V2.4873Z" fill="#F5F5F5"/>
</svg>
