<svg width="17" height="15" viewBox="0 0 17 15" fill="none" xmlns="http://www.w3.org/2000/svg">
<path d="M0 1.25C0 0.559644 0.422842 0 0.944444 0H16.0556C16.5772 0 17 0.559644 17 1.25C17 1.94036 16.5772 2.5 16.0556 2.5H0.944445C0.422843 2.5 0 1.94036 0 1.25Z" fill="#444444"/>
<path d="M0 7.5C0 6.80964 0.422842 6.25 0.944444 6.25H16.0556C16.5772 6.25 17 6.80964 17 7.5C17 8.19036 16.5772 8.75 16.0556 8.75H0.944445C0.422843 8.75 0 8.19036 0 7.5Z" fill="#444444"/>
<path d="M0 13.75C0 13.0596 0.422842 12.5 0.944444 12.5H16.0556C16.5772 12.5 17 13.0596 17 13.75C17 14.4404 16.5772 15 16.0556 15H0.944445C0.422843 15 0 14.4404 0 13.75Z" fill="#444444"/>
</svg>
