<svg width="360" height="329" viewBox="0 0 360 329" fill="none" xmlns="http://www.w3.org/2000/svg">
<path d="M-40.9919 22.0484C-32.2052 54.6444 -13.158 109.468 30.0711 166.836C50.1557 193.498 110.389 271.373 213.82 308.114C232.274 314.675 373.34 357.901 426.405 296.025C431.201 290.431 446.911 272.906 433.872 249.968C420.832 227.03 398.542 217.831 378.163 216.566L382.969 246.437C403.275 250.236 407.394 273.804 386.187 283.686C341.928 300.54 269.707 291.306 224.132 274.307C178.556 257.308 100.318 185.315 58.595 115.77C35.1791 73.1301 20.897 18.7686 10.16 -32.5001L-40.9919 22.0484Z" fill="#6600FF"/>
<path d="M-40.9919 22.0484C-32.2052 54.6444 -13.158 109.468 30.0711 166.836C50.1557 193.498 110.389 271.373 213.82 308.114C232.274 314.675 373.34 357.901 426.405 296.025C431.201 290.431 446.911 272.906 433.872 249.968C420.832 227.03 398.542 217.831 378.163 216.566L382.969 246.437C403.275 250.236 407.394 273.804 386.187 283.686C341.928 300.54 269.707 291.306 224.132 274.307C178.556 257.308 100.318 185.315 58.595 115.77C35.1791 73.1301 20.897 18.7686 10.16 -32.5001L-40.9919 22.0484Z" fill="url(#paint0_linear_734_16737)"/>
<defs>
<linearGradient id="paint0_linear_734_16737" x1="87.915" y1="224.802" x2="8.41352" y2="-1.27295" gradientUnits="userSpaceOnUse">
<stop stop-color="#6600FF"/>
<stop offset="1" stop-color="#4E14A3"/>
</linearGradient>
</defs>
</svg>
