<svg width="134" height="249" viewBox="0 0 134 249" fill="none" xmlns="http://www.w3.org/2000/svg">
<path d="M3.65478 0.285439C0.429043 17.8603 -6.54807 67.5292 25.7893 141.037C55.8986 209.497 155.022 257.875 211.311 247.541C212.058 244.732 217.866 220.087 217.866 220.087C217.866 220.087 155.769 223.698 96.7009 175.96C72.0208 156.003 30.5187 81.5796 46.8573 7.33392L3.65478 0.285439Z" fill="#6600FF"/>
<path d="M3.65478 0.285439C0.429043 17.8603 -6.54807 67.5292 25.7893 141.037C55.8986 209.497 155.022 257.875 211.311 247.541C212.058 244.732 217.866 220.087 217.866 220.087C217.866 220.087 155.769 223.698 96.7009 175.96C72.0208 156.003 30.5187 81.5796 46.8573 7.33392L3.65478 0.285439Z" fill="url(#paint0_linear_734_16734)"/>
<defs>
<linearGradient id="paint0_linear_734_16734" x1="21.6244" y1="34.4689" x2="42.7157" y2="167.606" gradientUnits="userSpaceOnUse">
<stop stop-color="#4E14A3"/>
<stop offset="1" stop-color="#6600FF" stop-opacity="0"/>
</linearGradient>
</defs>
</svg>
