<svg width="132" height="104" viewBox="0 0 132 104" fill="none" xmlns="http://www.w3.org/2000/svg">
<path d="M179.666 93.2957C185.562 86.441 204.848 64.9417 190.166 37.9893C175.484 11.0369 149.326 0.830307 125.157 0.0395953C76.0882 -1.56338 45.8269 37.9273 40.7437 43.4272C26.7141 58.6068 0.987756 101.19 0.987756 101.19L46.1622 103.651C69.1059 69.7522 106.357 31.8292 129.812 35.5682C153.804 39.3909 157.865 67.4113 132.318 79.972L179.666 93.2957Z" fill="#6600FF"/>
<path d="M179.666 93.2957C185.562 86.441 204.848 64.9417 190.166 37.9893C175.484 11.0369 149.326 0.830307 125.157 0.0395953C76.0882 -1.56338 45.8269 37.9273 40.7437 43.4272C26.7141 58.6068 0.987756 101.19 0.987756 101.19L46.1622 103.651C69.1059 69.7522 106.357 31.8292 129.812 35.5682C153.804 39.3909 157.865 67.4113 132.318 79.972L179.666 93.2957Z" fill="url(#paint0_linear_734_16736)" fill-opacity="0.2"/>
<defs>
<linearGradient id="paint0_linear_734_16736" x1="21.5938" y1="111.962" x2="69.4045" y2="42.9851" gradientUnits="userSpaceOnUse">
<stop stop-color="#1E004A"/>
<stop offset="1" stop-color="#1E004A" stop-opacity="0"/>
</linearGradient>
</defs>
</svg>
