<svg width="13" height="13" viewBox="0 0 13 13" fill="none" xmlns="http://www.w3.org/2000/svg">
    <circle cx="6.5" cy="6.5" r="6.5" fill="#DC0000"/>
    <path d="M7.29543 7L8.83526 5.46017C9.0549 5.24052 9.0549 4.8844 8.83526 4.66474C8.61559 4.44509 8.25949 4.44509 8.03983 4.66474L6.5 6.20457L4.96017 4.66474C4.74052 4.44509 4.3844 4.44509 4.16474 4.66474C3.94509 4.8844 3.94509 5.24052 4.16474 5.46017L5.70457 7L4.16474 8.53983C3.94509 8.75948 3.94509 9.11561 4.16474 9.33526C4.27457 9.44508 4.41851 9.5 4.56245 9.5C4.70639 9.5 4.85034 9.44509 4.96016 9.33526L6.5 7.79543L8.03983 9.33526C8.14966 9.44508 8.2936 9.5 8.43754 9.5C8.58148 9.5 8.72542 9.44509 8.83525 9.33526C9.0549 9.11561 9.0549 8.75948 8.83525 8.53983L7.29543 7Z" fill="white"/>
</svg>