<svg width="13" height="13" viewBox="0 0 13 13" fill="none" xmlns="http://www.w3.org/2000/svg">
    <circle cx="6.5" cy="6.5" r="6.5" fill="#DC0000"/>
    <path d="M4.22328 2.63594C4.57528 2.52394 4.93928 2.44794 5.31528 2.40794C5.69928 2.35994 6.11128 2.33594 6.55128 2.33594C7.23928 2.33594 7.78328 2.40394 8.18328 2.53994C8.58328 2.66794 8.86728 2.86794 9.03528 3.13994C9.21128 3.41194 9.29928 3.75594 9.29928 4.17194C9.29928 4.65994 9.18328 5.07194 8.95128 5.40794C8.71928 5.73594 8.31928 5.93594 7.75128 6.00794V6.06794C8.34328 6.09994 8.76328 6.26394 9.01128 6.55994C9.26728 6.85594 9.39528 7.21994 9.39528 7.65194C9.39528 8.37194 9.15528 8.91594 8.67528 9.28394C8.20328 9.64394 7.44328 9.83594 6.39528 9.85994C5.85928 9.86794 5.38728 9.83994 4.97928 9.77594C4.57128 9.71194 4.19928 9.62394 3.86328 9.51194V8.01194H3.93528C4.25528 8.11594 4.57928 8.19194 4.90728 8.23994C5.23528 8.28794 5.60728 8.31194 6.02328 8.31194C6.58328 8.31194 6.98728 8.25194 7.23528 8.13194C7.48328 8.01194 7.60728 7.80394 7.60728 7.50794C7.60728 7.23594 7.51128 7.05194 7.31928 6.95594C7.13528 6.85194 6.79128 6.79994 6.28728 6.79994H5.32728V5.25194H6.13128C6.70728 5.25194 7.09528 5.20394 7.29528 5.10794C7.50328 5.00394 7.60728 4.81994 7.60728 4.55594C7.60728 4.28394 7.49128 4.10394 7.25928 4.01594C7.03528 3.92794 6.63928 3.88394 6.07128 3.88394C5.75928 3.88394 5.44328 3.90794 5.12328 3.95594C4.81128 4.00394 4.52728 4.06794 4.27128 4.14794L4.22328 4.13594V2.63594Z" fill="white"/>
</svg>
