<svg width="7" height="12" viewBox="0 0 7 12" fill="none" xmlns="http://www.w3.org/2000/svg">
    <path d="M1.71946 11.7046L6.70499 6.71312C7.09834 6.31929 7.09833 5.68079 6.70499 5.28697C6.31164 4.89315 5.67391 4.89314 5.28055 5.28697L0.295022 10.2785C-0.0983253 10.6723 -0.0983214 11.3108 0.295022 11.7046C0.688366 12.0985 1.32611 12.0985 1.71946 11.7046Z" fill="#444444"/>
    <path d="M5.28054 6.71304L0.295013 1.72152C-0.0983453 1.32769 -0.098331 0.689185 0.295013 0.295368C0.688356 -0.0984478 1.32609 -0.0984621 1.71945 0.295368L6.70499 5.28697C7.09833 5.68079 7.09834 6.31929 6.70499 6.71312C6.31164 7.10693 5.67389 7.10686 5.28054 6.71304Z" fill="#444444"/>
</svg>
