<svg width="32" height="32" viewBox="0 0 32 32" fill="none" xmlns="http://www.w3.org/2000/svg">
    <path d="M4 22.9994V27.9994H9L23.7467 13.2527L18.7467 8.25269L4 22.9994ZM27.6133 9.38602C27.7369 9.26267 27.835 9.11615 27.9019 8.95485C27.9688 8.79355 28.0033 8.62064 28.0033 8.44602C28.0033 8.27139 27.9688 8.09848 27.9019 7.93719C27.835 7.77589 27.7369 7.62937 27.6133 7.50602L24.4933 4.38602C24.37 4.26241 24.2235 4.16435 24.0622 4.09744C23.9009 4.03053 23.728 3.99609 23.5533 3.99609C23.3787 3.99609 23.2058 4.03053 23.0445 4.09744C22.8832 4.16435 22.7367 4.26241 22.6133 4.38602L20.1733 6.82602L25.1733 11.826L27.6133 9.38602Z" fill="#1F1F1F"/>
</svg>