<svg width="20" height="20" viewBox="0 0 20 20" fill="none" xmlns="http://www.w3.org/2000/svg">
    <path d="M2.50007 15.8332H17.5001C17.6519 15.8327 17.8008 15.7908 17.9306 15.712C18.0605 15.6332 18.1664 15.5205 18.2369 15.3861C18.3074 15.2516 18.34 15.1004 18.331 14.9488C18.322 14.7972 18.2718 14.6509 18.1859 14.5257L10.6859 3.69234C10.3751 3.24318 9.62674 3.24318 9.31507 3.69234L1.81507 14.5257C1.72826 14.6506 1.67735 14.797 1.66788 14.9488C1.6584 15.1007 1.69072 15.2522 1.76133 15.387C1.83194 15.5218 1.93813 15.6346 2.06837 15.7133C2.19861 15.792 2.34792 15.8334 2.50007 15.8332Z" fill="#1F1F1F"/>
</svg>
