<svg width="23" height="23" viewBox="0 0 23 23" fill="none" xmlns="http://www.w3.org/2000/svg">
    <path d="M19.0791 0.672721C19.9761 -0.22424 21.4303 -0.22424 22.3273 0.672721C23.2242 1.56968 23.2242 3.02394 22.3273 3.9209L3.9209 22.3273C3.02394 23.2242 1.56968 23.2242 0.672721 22.3273C-0.22424 21.4303 -0.22424 19.9761 0.672721 19.0791L19.0791 0.672721Z" fill="#666666"/>
    <path d="M0.672721 0.672721C1.56968 -0.22424 3.02394 -0.22424 3.9209 0.672721L22.3273 19.0791C23.2242 19.9761 23.2242 21.4303 22.3273 22.3273C21.4303 23.2242 19.9761 23.2242 19.0791 22.3273L0.672721 3.9209C-0.22424 3.02394 -0.22424 1.56968 0.672721 0.672721Z" fill="#666666"/>
</svg>
