<svg width="15" height="15" viewBox="0 0 15 15" fill="none" xmlns="http://www.w3.org/2000/svg">
    <path d="M6.36438 0.842727C6.39537 0.657402 6.35148 0.467353 6.24235 0.31439C6.13323 0.161426 5.9678 0.0580785 5.78248 0.0270813C5.59715 -0.0039159 5.40711 0.0399767 5.25414 0.149103C5.10118 0.25823 4.99783 0.423652 4.96683 0.608977L4.35767 4.2661L1.41525 4.26752C1.22739 4.26771 1.0473 4.34251 0.91459 4.47549C0.781885 4.60846 0.707437 4.7887 0.707625 4.97656C0.707813 5.16442 0.782621 5.34452 0.915592 5.47722C1.04856 5.60993 1.22881 5.68437 1.41667 5.68419L4.12038 5.68277L3.64792 8.5161L0.708333 8.51752C0.520472 8.51752 0.340304 8.59215 0.207466 8.72499C0.0746277 8.85782 0 9.03799 0 9.22585C0 9.41371 0.0746277 9.59388 0.207466 9.72672C0.340304 9.85956 0.520472 9.93419 0.708333 9.93419L3.41204 9.93277L2.84042 13.3597C2.82512 13.4515 2.82804 13.5453 2.84902 13.636C2.87 13.7266 2.90862 13.8122 2.96269 13.8879C3.01676 13.9636 3.08521 14.0279 3.16413 14.0772C3.24305 14.1264 3.3309 14.1597 3.42267 14.175C3.51443 14.1903 3.60831 14.1874 3.69894 14.1664C3.78958 14.1454 3.87519 14.1068 3.9509 14.0527C4.02661 13.9986 4.09092 13.9302 4.14018 13.8513C4.18943 13.7723 4.22266 13.6845 4.23796 13.5927L4.84854 9.93277L8.3725 9.93064L7.80158 13.359C7.78376 13.4517 7.78466 13.5471 7.80425 13.6395C7.82383 13.7319 7.86169 13.8195 7.91561 13.897C7.96954 13.9746 8.03842 14.0406 8.11822 14.0911C8.19802 14.1416 8.28712 14.1757 8.38028 14.1913C8.47344 14.2069 8.56877 14.2037 8.66068 14.1819C8.75258 14.1601 8.8392 14.1201 8.91543 14.0643C8.99166 14.0086 9.05597 13.9381 9.10456 13.8571C9.15316 13.7761 9.18507 13.6862 9.19842 13.5927L9.809 9.93064L12.75 9.92852C12.9379 9.92852 13.118 9.85389 13.2509 9.72105C13.3837 9.58822 13.4583 9.40805 13.4583 9.22019C13.4583 9.03232 13.3837 8.85216 13.2509 8.71932C13.118 8.58648 12.9379 8.51185 12.75 8.51185L10.0449 8.51256L10.5173 5.67852L13.459 5.67639C13.6469 5.67621 13.827 5.6014 13.9597 5.46843C14.0924 5.33546 14.1669 5.15521 14.1667 4.96735C14.1665 4.77949 14.0917 4.5994 13.9587 4.46669C13.8257 4.33399 13.6455 4.25954 13.4576 4.25973L10.7539 4.26114L11.3234 0.842019C11.3412 0.749262 11.3403 0.653877 11.3208 0.561475C11.3012 0.469073 11.2633 0.381521 11.2094 0.30397C11.1555 0.226419 11.0866 0.160436 11.0068 0.109902C10.927 0.0593677 10.8379 0.0253038 10.7447 0.00971436C10.6516 -0.00587509 10.5562 -0.00267515 10.4643 0.0191257C10.3724 0.0409265 10.2858 0.0808879 10.2096 0.136659C10.1333 0.19243 10.069 0.262884 10.0204 0.343876C9.97184 0.424868 9.93993 0.514762 9.92658 0.608269L9.31742 4.26256L5.79346 4.26469L6.36438 0.842727ZM5.55688 5.68206L9.08154 5.67994L8.60908 8.51398L5.08442 8.51539L5.55688 5.68206Z" fill="white"/>
</svg>
