<svg width="11" height="11" viewBox="0 0 11 11" fill="none" xmlns="http://www.w3.org/2000/svg">
<path d="M1.87522 0.321736C1.44623 -0.107245 0.750718 -0.107245 0.321736 0.321736C-0.107245 0.750718 -0.107245 1.44623 0.321736 1.87522L9.12478 10.6783C9.55377 11.1072 10.2493 11.1072 10.6783 10.6783C11.1072 10.2493 11.1072 9.55377 10.6783 9.12478L1.87522 0.321736Z" fill="#969595"/>
<path d="M10.6783 0.321736C10.2493 -0.107245 9.55377 -0.107245 9.12478 0.321736L0.321736 9.12478C-0.107245 9.55377 -0.107245 10.2493 0.321736 10.6783C0.750718 11.1072 1.44623 11.1072 1.87522 10.6783L10.6783 1.87522C11.1072 1.44623 11.1072 0.750718 10.6783 0.321736Z" fill="#969595"/>
</svg>
