<svg width="16" height="14" viewBox="0 0 16 14" fill="none" xmlns="http://www.w3.org/2000/svg">
    <path d="M6.95414 0C3.11347 0 0 3.13399 0 7C0 10.866 3.11347 14 6.95414 14C7.87867 14 8.77927 13.8179 9.61619 13.4686C10.3663 13.1555 11.0551 12.7121 11.652 12.1613L11.8714 11.9497L10.7787 10.8498C10.2764 11.3555 9.68017 11.7579 9.02426 12.0317C8.37419 12.303 7.67463 12.4444 6.95414 12.4444C3.96693 12.4444 1.54537 10.0069 1.54537 7C1.54537 3.9931 3.96693 1.55557 6.95414 1.55557C9.83013 1.55557 12.1818 3.81504 12.3529 6.6667L11.3639 5.67226L10.2712 6.77221L13.1356 9.65552L16 6.77221L14.9073 5.67226L13.9013 6.68434C13.7373 2.96483 10.6897 0 6.95414 0Z" fill="white"/>
</svg>
