<svg width="40" height="27" viewBox="0 0 40 27" fill="none"
     xmlns="http://www.w3.org/2000/svg">
    <path opacity="0.8"
          d="M37.7186 8.12206L37.6301 8.03356C34.523 5.05421 29.5377 5.06405 26.4502 8.0729L28.8593 10.4229L31.8779 13.3728L32.8514 14.3266C34.9458 16.3718 35.3882 19.42 34.1788 21.888C33.8543 22.5468 33.4119 23.1663 32.8514 23.7169L37.6597 19.0267C37.6597 19.0267 37.6793 19.007 37.6891 18.9972C38.5347 18.1614 39.1444 17.1879 39.5279 16.1457C40.5111 13.4318 39.9114 10.2951 37.7088 8.11223L37.7186 8.12206Z"
          fill="url(#paint0_linear_5433_4166)"/>
    <path opacity="0.8"
          d="M32.0649 2.60561L32.0353 2.57611C28.4857 -0.845722 22.7728 -0.835887 19.2428 2.60561L12.8318 8.86913L6.4208 15.1326L0.00976562 21.3962L0.127755 21.5043C3.67741 24.8573 9.34118 24.818 12.8417 21.3962L16.0471 18.2693L16.1061 18.2103L19.2625 15.1326L25.6735 8.86913L26.4798 8.0825C29.5673 5.07365 34.5526 5.05398 37.6597 8.04317L32.0943 2.60561H32.0649Z"
          fill="url(#paint1_linear_5433_4166)"/>
    <path d="M31.8867 13.3825L28.8681 10.4326C30.6281 12.1534 30.6281 14.9459 28.8681 16.6765C28.8681 16.6765 28.1797 17.3451 28.0519 17.4729C24.7776 20.6686 19.6448 20.9046 16.0854 18.2006L16.0264 18.2596L21.5917 23.6971L21.6802 23.7856C24.7874 26.765 29.7727 26.7551 32.8602 23.7463L32.8405 23.7266L32.87 23.7463C33.4305 23.1956 33.8729 22.5762 34.1974 21.9075C35.4069 19.4395 34.9644 16.3913 32.87 14.3461L31.8966 13.3923L31.8867 13.3825Z"
          fill="url(#paint2_linear_5433_4166)"/>
    <defs>
        <linearGradient id="paint0_linear_5433_4166" x1="26.1552" y1="6.77496"
                        x2="38.0431"
                        y2="18.6727" gradientUnits="userSpaceOnUse">
            <stop stop-color="#685dd8" stop-opacity="0.1"/>
            <stop offset="0.03" stop-color="#685dd8" stop-opacity="0.14"/>
            <stop offset="0.18" stop-color="#685dd8" stop-opacity="0.37"/>
            <stop offset="0.32" stop-color="#685dd8" stop-opacity="0.56"/>
            <stop offset="0.47" stop-color="#685dd8" stop-opacity="0.72"/>
            <stop offset="0.61" stop-color="#685dd8" stop-opacity="0.84"/>
            <stop offset="0.75" stop-color="#685dd8" stop-opacity="0.93"/>
            <stop offset="0.88" stop-color="#685dd8" stop-opacity="0.98"/>
            <stop offset="1" stop-color="#685dd8"/>
        </linearGradient>
        <linearGradient id="paint1_linear_5433_4166" x1="6.0668" y1="27.463"
                        x2="31.5634"
                        y2="1.96645"
                        gradientUnits="userSpaceOnUse">
            <stop stop-color="#7367f0" stop-opacity="0.5"/>
            <stop offset="0.02" stop-color="#7367f0" stop-opacity="0.54"/>
            <stop offset="0.07" stop-color="#7367f0" stop-opacity="0.66"/>
            <stop offset="0.14" stop-color="#7367f0" stop-opacity="0.77"/>
            <stop offset="0.22" stop-color="#7367f0" stop-opacity="0.85"/>
            <stop offset="0.31" stop-color="#7367f0" stop-opacity="0.92"/>
            <stop offset="0.42" stop-color="#7367f0" stop-opacity="0.97"/>
            <stop offset="0.57" stop-color="#7367f0" stop-opacity="0.99"/>
            <stop offset="1" stop-color="#7367f0"/>
        </linearGradient>
        <linearGradient id="paint2_linear_5433_4166" x1="31.6212" y1="12.4877"
                        x2="21.9457"
                        y2="24.0118"
                        gradientUnits="userSpaceOnUse">
            <stop stop-color="#7367f0" stop-opacity="0.1"/>
            <stop offset="0.04" stop-color="#7367f0" stop-opacity="0.17"/>
            <stop offset="0.18" stop-color="#7367f0" stop-opacity="0.38"/>
            <stop offset="0.33" stop-color="#7367f0" stop-opacity="0.57"/>
            <stop offset="0.47" stop-color="#7367f0" stop-opacity="0.73"/>
            <stop offset="0.61" stop-color="#7367f0" stop-opacity="0.85"/>
            <stop offset="0.75" stop-color="#7367f0" stop-opacity="0.93"/>
            <stop offset="0.88" stop-color="#7367f0" stop-opacity="0.98"/>
            <stop offset="1" stop-color="#7367f0"/>
        </linearGradient>
    </defs>
</svg>
