<svg width="34" height="34" viewBox="0 0 34 34" fill="none" xmlns="http://www.w3.org/2000/svg">
    <path d="M19.8333 13.9643C19.8333 12.1172 20.5577 10.3458 21.847 9.03979C23.1363 7.73374 24.885 7 26.7083 7H27.1667C27.4098 7 27.6429 7.09783 27.8148 7.27197C27.9868 7.44611 28.0833 7.6823 28.0833 7.92857V19.0714C28.0833 19.2181 28.12 19.6917 28.1915 20.4327C28.2593 21.1477 28.3519 22.0512 28.4509 23.0141L28.4628 23.1284C28.7103 25.5408 29 28.3711 29 29.2857C29 30.2708 28.6137 31.2155 27.9261 31.9121C27.2384 32.6087 26.3058 33 25.3333 33C24.3609 33 23.4282 32.6087 22.7406 31.9121C22.053 31.2155 21.6667 30.2708 21.6667 29.2857C21.6667 28.5076 21.8748 26.1592 22.0865 23.9576C22.2323 22.4394 22.3835 20.949 22.4816 20H22.125C21.5172 20 20.9343 19.7554 20.5045 19.3201C20.0748 18.8847 19.8333 18.2943 19.8333 17.6786V13.9643ZM17.0595 7.71779C17.0103 7.50416 16.8881 7.31507 16.7144 7.18403C16.5407 7.05298 16.3269 6.98845 16.1108 7.00186C15.6249 7.02971 15.2408 7.4355 15.2408 7.93414V13.5056C15.2445 13.7506 15.1519 13.9871 14.9834 14.163C14.8149 14.3388 14.5844 14.4397 14.3425 14.4434C14.1006 14.4471 13.8672 14.3533 13.6935 14.1827C13.5199 14.012 13.4203 13.7785 13.4167 13.5334V7.92857C13.4167 7.6823 13.3201 7.44611 13.1482 7.27197C12.9763 7.09783 12.7431 7 12.5 7C12.2569 7 12.0237 7.09783 11.8518 7.27197C11.6799 7.44611 11.5833 7.6823 11.5833 7.92857V13.5604C11.5684 13.7996 11.4622 14.0236 11.2872 14.185C11.1122 14.3464 10.8821 14.4326 10.6456 14.4254C10.409 14.4181 10.1845 14.3181 10.0194 14.1463C9.85438 13.9744 9.76171 13.7444 9.761 13.5046V7.93507C9.76037 7.70639 9.67704 7.48587 9.52677 7.31522C9.37649 7.14457 9.16969 7.03561 8.94548 7.00897C8.72127 6.98232 8.49519 7.03983 8.31 7.17061C8.12482 7.3014 7.99336 7.49639 7.9405 7.71871C7.92034 7.80414 7 11.7729 7 14.4286C6.99929 15.2679 7.18612 16.0966 7.54648 16.8524C7.90684 17.6082 8.4314 18.2716 9.08084 18.7929C9.5355 19.1587 9.75 19.5571 9.75 19.8904C9.74986 19.9258 9.74771 19.9612 9.74359 19.9963C9.68859 20.4643 9.46217 22.405 9.2495 24.4098C9.0405 26.3811 8.83334 28.5057 8.83334 29.2857C8.83334 30.2708 9.21964 31.2155 9.90728 31.9121C10.5949 32.6087 11.5275 33 12.5 33C13.4725 33 14.4051 32.6087 15.0927 31.9121C15.7804 31.2155 16.1667 30.2708 16.1667 29.2857C16.1667 28.5066 15.9595 26.3811 15.7505 24.4098C15.5378 22.405 15.3105 20.4634 15.2555 19.9963C15.2517 19.9611 15.2498 19.9258 15.25 19.8904C15.25 19.5571 15.4645 19.1587 15.9192 18.7929C16.5686 18.2716 17.0932 17.6082 17.4535 16.8524C17.8139 16.0966 18.0007 15.2679 18 14.4286C18 11.771 17.0769 7.79486 17.0595 7.71779ZM16.0695 7.00464L16.0878 7.00371H16.0805L16.0732 7.00464H16.0695Z" fill="#666666"/>
</svg>
