<svg width="24" height="23" viewBox="0 0 24 23" fill="none" xmlns="http://www.w3.org/2000/svg">
    <path d="M17.13 17.3937L16.62 16.905C16.44 16.7325 16.2252 16.6462 15.9756 16.6462C15.726 16.6462 15.5108 16.7325 15.33 16.905C15.1492 17.0775 15.0592 17.2787 15.06 17.5087C15.0608 17.7387 15.1508 17.94 15.33 18.1125L16.5 19.2337C16.68 19.4062 16.89 19.4925 17.13 19.4925C17.37 19.4925 17.58 19.4062 17.76 19.2337L20.67 16.5025C20.85 16.33 20.94 16.1238 20.94 15.8838C20.94 15.6438 20.85 15.438 20.67 15.2662C20.49 15.0945 20.2748 15.0083 20.0244 15.0075C19.774 15.0067 19.5592 15.093 19.38 15.2662L17.13 17.3937ZM16.8 6.9C17.14 6.9 17.4252 6.7896 17.6556 6.5688C17.886 6.348 18.0008 6.07507 18 5.75C17.9992 5.42493 17.884 5.152 17.6544 4.9312C17.4248 4.7104 17.14 4.6 16.8 4.6H4.8C4.46 4.6 4.1752 4.7104 3.9456 4.9312C3.716 5.152 3.6008 5.42493 3.6 5.75C3.5992 6.07507 3.7144 6.34838 3.9456 6.56995C4.1768 6.79152 4.4616 6.90153 4.8 6.9H16.8ZM18 23C16.34 23 14.9252 22.4392 13.7556 21.3175C12.586 20.1959 12.0008 18.8401 12 17.25C11.9992 15.6599 12.5844 14.3041 13.7556 13.1824C14.9268 12.0608 16.3416 11.5 18 11.5C19.6584 11.5 21.0736 12.0608 22.2456 13.1824C23.4176 14.3041 24.0024 15.6599 24 17.25C23.9976 18.8401 23.4124 20.1963 22.2444 21.3187C21.0764 22.4411 19.6616 23.0015 18 23ZM0 21.7062V2.3C0 1.6675 0.2352 1.12623 0.7056 0.6762C1.176 0.226167 1.7408 0.000766667 2.4 0H19.2C19.86 0 20.4252 0.2254 20.8956 0.6762C21.366 1.127 21.6008 1.66827 21.6 2.3V8.625C21.6 8.95083 21.46 9.21457 21.18 9.4162C20.9 9.61783 20.59 9.67035 20.25 9.57375C19.69 9.43958 19.12 9.34375 18.54 9.28625C17.96 9.22875 17.38 9.2 16.8 9.2H4.8C4.46 9.2 4.1752 9.3104 3.9456 9.5312C3.716 9.752 3.6008 10.0249 3.6 10.35C3.5992 10.6751 3.7144 10.9484 3.9456 11.1699C4.1768 11.3915 4.4616 11.5015 4.8 11.5H12.12C11.78 11.8258 11.4652 12.1804 11.1756 12.5637C10.886 12.9471 10.6308 13.3592 10.41 13.8H4.8C4.46 13.8 4.1752 13.9104 3.9456 14.1312C3.716 14.352 3.6008 14.6249 3.6 14.95C3.5992 15.2751 3.7144 15.5484 3.9456 15.7699C4.1768 15.9915 4.4616 16.1015 4.8 16.1H9.69C9.65 16.2917 9.6252 16.4787 9.6156 16.6612C9.606 16.8437 9.6008 17.0399 9.6 17.25C9.6 17.7483 9.65 18.2371 9.75 18.7162C9.85 19.1954 9.98 19.6746 10.14 20.1537C10.24 20.3646 10.2 20.5325 10.02 20.6574C9.84 20.7824 9.67 20.7678 9.51 20.6137L9.42 20.5275C9.3 20.4125 9.16 20.355 9 20.355C8.84 20.355 8.7 20.4125 8.58 20.5275L7.62 21.4475C7.5 21.5625 7.36 21.62 7.2 21.62C7.04 21.62 6.9 21.5625 6.78 21.4475L5.82 20.5275C5.7 20.4125 5.56 20.355 5.4 20.355C5.24 20.355 5.1 20.4125 4.98 20.5275L4.02 21.4475C3.9 21.5625 3.76 21.62 3.6 21.62C3.44 21.62 3.3 21.5625 3.18 21.4475L2.22 20.5275C2.1 20.4125 1.96 20.355 1.8 20.355C1.64 20.355 1.5 20.4125 1.38 20.5275L0.42 21.4475L0 21.7062Z" fill="white"/>
</svg>
