<svg width="13" height="13" viewBox="0 0 13 13" fill="none" xmlns="http://www.w3.org/2000/svg">
    <circle cx="6.5" cy="6.5" r="6.5" fill="#DC0000"/>
    <g clip-path="url(#clip0_2173_5984)">
        <path d="M7.34969 3C7.31455 3.00066 7.28003 3.00932 7.24873 3.02531L6.1045 4.15258C6.03612 4.21719 5.97823 4.26323 5.97823 4.34615C5.97823 4.42881 6.02804 4.47188 6.10477 4.53973L7.249 5.667C7.31712 5.702 7.40219 5.69823 7.46762 5.65865C7.50029 5.63986 7.52754 5.61292 7.54669 5.58045C7.56585 5.54799 7.57627 5.51111 7.57692 5.47342V4.88462H8.11539C8.56823 4.88462 8.92308 5.23946 8.92308 5.69231V7.30769C8.92308 7.76054 8.56823 8.11539 8.11539 8.11539C7.97258 8.11539 7.83562 8.17212 7.73464 8.2731C7.63365 8.37408 7.57692 8.51104 7.57692 8.65385C7.57692 8.79666 7.63365 8.93362 7.73464 9.0346C7.83562 9.13558 7.97258 9.19231 8.11539 9.19231C9.14977 9.19231 10 8.34208 10 7.30769V5.69231C10 4.65792 9.14977 3.80769 8.11539 3.80769H7.57692V3.21862C7.57622 3.18097 7.56578 3.14415 7.54663 3.11174C7.52747 3.07933 7.50025 3.05243 7.46762 3.03365C7.4321 3.01192 7.39133 3.00028 7.34969 3ZM4.88462 3.80769C3.85023 3.80769 3 4.65792 3 5.69231V7.30769C3 8.34208 3.85023 9.19231 4.88462 9.19231H5.42308V9.78138C5.42308 9.85677 5.46615 9.92704 5.53238 9.96635C5.56784 9.98821 5.60865 9.99986 5.65031 10C5.68545 9.99934 5.71997 9.99068 5.75127 9.97469L6.8955 8.84742C6.96388 8.78281 7.02177 8.73677 7.02177 8.65385C7.02177 8.57146 6.97196 8.52812 6.89523 8.46027L5.751 7.333C5.71676 7.31603 5.67882 7.3079 5.64063 7.30936C5.60244 7.31082 5.56523 7.32181 5.53238 7.34135C5.49971 7.36014 5.47247 7.38708 5.45331 7.41955C5.43415 7.45201 5.42373 7.48889 5.42308 7.52658V8.11539H4.88462C4.43177 8.11539 4.07692 7.76054 4.07692 7.30769V5.69231C4.07692 5.23946 4.43177 4.88462 4.88462 4.88462C5.02742 4.88462 5.16438 4.82788 5.26537 4.7269C5.36635 4.62592 5.42308 4.48896 5.42308 4.34615C5.42308 4.20335 5.36635 4.06639 5.26537 3.9654C5.16438 3.86442 5.02742 3.80769 4.88462 3.80769Z" fill="white"/>
    </g>
    <defs>
        <clipPath id="clip0_2173_5984">
            <rect width="7" height="7" fill="white" transform="translate(3 3)"/>
        </clipPath>
    </defs>
</svg>
