<svg width="34" height="32" viewBox="0 0 34 32" fill="none" xmlns="http://www.w3.org/2000/svg">
    <path d="M29.6551 29.0126C29.636 29.7596 29.0202 30.3493 28.2801 30.3309C27.9486 30.3225 27.632 30.1895 27.3908 29.9595L20.7604 23.2678C20.2515 22.7359 20.2664 21.8885 20.7927 21.3758C21.3066 20.8747 22.1213 20.8747 22.6352 21.3758L29.2655 28.0674C29.5142 28.3184 29.6543 28.6588 29.6543 29.0134L29.6551 29.0126Z" fill="#666666"/>
    <path d="M5.78925 7.31942C5.80832 6.57247 6.42411 5.98276 7.16423 6.00117C7.49575 6.00953 7.81235 6.14253 8.05353 6.37255L14.6839 13.0642C15.1928 13.5962 15.1779 14.4435 14.6516 14.9563C14.1377 15.4573 13.323 15.4573 12.8092 14.9563L6.17879 8.26461C5.93015 8.01368 5.79008 7.67324 5.79008 7.31858L5.78925 7.31942Z" fill="#666666"/>
    <path d="M26.9565 20.8657C26.9565 21.6051 26.363 22.204 25.6304 22.204H21.6522V26.219C21.6522 26.9584 21.0587 27.5573 20.3261 27.5573C19.5934 27.5573 19 26.9584 19 26.219V20.8657C19 20.1262 19.5934 19.5273 20.3261 19.5273H25.6304C26.363 19.5273 26.9565 20.1262 26.9565 20.8657Z" fill="#666666"/>
    <path d="M8.48835 15.4664C8.48835 14.7269 9.08177 14.128 9.81443 14.128L13.7927 14.128L13.7927 10.113C13.7927 9.37362 14.3861 8.77472 15.1187 8.77472C15.8514 8.77472 16.4448 9.37362 16.4448 10.113L16.4448 15.4664C16.4448 16.2058 15.8514 16.8047 15.1187 16.8047L9.81443 16.8047C9.08177 16.8047 8.48835 16.2058 8.48835 15.4664Z" fill="#666666"/>
    <path d="M7.09615 30.2334C6.35604 30.2141 5.77173 29.5926 5.78997 28.8457C5.79825 28.5111 5.93003 28.1916 6.15795 27.9482L12.7883 21.2565C13.3155 20.7429 14.155 20.758 14.6631 21.2891C15.1595 21.8078 15.1595 22.63 14.6631 23.1486L8.0327 29.8402C7.78406 30.0912 7.44674 30.2325 7.09532 30.2325L7.09615 30.2334Z" fill="#666666"/>
    <path d="M28.3487 6.09867C29.0888 6.11791 29.6731 6.73939 29.6549 7.48635C29.6466 7.82093 29.5148 8.14046 29.2869 8.38387L22.6565 15.0755C22.1294 15.5891 21.2898 15.574 20.7817 15.0429C20.2853 14.5243 20.2853 13.702 20.7817 13.1834L27.4121 6.4918C27.6608 6.24087 27.9981 6.09951 28.3495 6.09951L28.3487 6.09867Z" fill="#666666"/>
    <path d="M15.0528 27.5573C14.3201 27.5573 13.7267 26.9584 13.7267 26.219V22.204H9.74844C9.01578 22.204 8.42236 21.6051 8.42236 20.8657C8.42236 20.1262 9.01578 19.5273 9.74844 19.5273H15.0528C15.7854 19.5273 16.3788 20.1262 16.3788 20.8657V26.219C16.3788 26.9584 15.7854 27.5573 15.0528 27.5573Z" fill="#666666"/>
    <path d="M20.3921 8.77472C21.1247 8.77472 21.7181 9.37362 21.7181 10.113L21.7181 14.128L25.6964 14.128C26.429 14.128 27.0225 14.7269 27.0225 15.4664C27.0225 16.2058 26.429 16.8047 25.6964 16.8047L20.3921 16.8047C19.6594 16.8047 19.066 16.2058 19.066 15.4664L19.066 10.113C19.066 9.37362 19.6594 8.77472 20.3921 8.77472Z" fill="#666666"/>
</svg>
