<svg width="31" height="31" viewBox="0 0 31 31" fill="none" xmlns="http://www.w3.org/2000/svg">
    <path d="M24.5417 24.543H6.45833V10.3346H24.5417M20.6667 1.29297V3.8763H10.3333V1.29297H7.75V3.8763H6.45833C5.02458 3.8763 3.875 5.02589 3.875 6.45964V24.543C3.875 25.2281 4.14717 25.8852 4.63164 26.3697C5.11611 26.8541 5.77319 27.1263 6.45833 27.1263H24.5417C25.2268 27.1263 25.8839 26.8541 26.3684 26.3697C26.8528 25.8852 27.125 25.2281 27.125 24.543V6.45964C27.125 5.77449 26.8528 5.11741 26.3684 4.63294C25.8839 4.14847 25.2268 3.8763 24.5417 3.8763H23.25V1.29297M21.9583 15.5013H15.5V21.9596H21.9583V15.5013Z" fill="black"/>
</svg>
