<svg width="26" height="23" viewBox="0 0 26 23" fill="none" xmlns="http://www.w3.org/2000/svg">
    <path d="M22.2168 0H3.7832C1.69102 0 0 1.62454 0 3.63447V14.6452C0 16.6503 1.69609 18.2797 3.7832 18.2797H7.54102V21.8507C7.54102 22.8411 8.75977 23.3679 9.53164 22.7045L14.691 18.2797H22.2168C24.309 18.2797 26 16.6503 26 14.6452V3.63447C26 1.62454 24.3039 0 22.2168 0ZM19.5609 11.2839C19.5609 11.7767 19.1445 12.1767 18.6316 12.1767H7.36836C6.85547 12.1767 6.43906 11.7767 6.43906 11.2839C6.43906 10.7912 6.85547 10.3912 7.36836 10.3863H18.6266C19.1445 10.3912 19.5609 10.7912 19.5609 11.2839ZM19.5609 7.1421C19.5609 7.63483 19.1445 8.03487 18.6316 8.03487H7.36836C6.85547 8.03487 6.43906 7.63483 6.43906 7.1421C6.43906 6.64938 6.85547 6.24934 7.36836 6.24934H18.6266C19.1445 6.24934 19.5609 6.64938 19.5609 7.1421Z" fill="#444444"/>
</svg>
