<svg width="25" height="25" viewBox="0 0 25 25" fill="none" xmlns="http://www.w3.org/2000/svg">
    <rect width="25" height="25" rx="5" fill="#3B6CFF"/>
    <path d="M14.1947 12.1402C14.7277 11.8021 15.1306 11.3138 15.3442 10.7459C15.5577 10.1785 15.5712 9.56154 15.3819 8.98661C15.1927 8.41132 14.8112 7.90799 14.2931 7.55035C13.7751 7.19271 13.1482 7 12.5041 7C11.86 7 11.2331 7.19307 10.7151 7.55035C10.1971 7.90799 9.81556 8.41132 9.6263 8.98661C9.43704 9.56189 9.4505 10.1785 9.66408 10.7459C9.87765 11.3134 10.2809 11.8021 10.8135 12.1402C9.9835 12.4547 9.27246 12.9933 8.77126 13.6872C8.27005 14.3811 8.0015 15.1986 8 16.0354V17H17V16.0354C17 15.199 16.7329 14.3818 16.2332 13.6879C15.7335 12.994 15.0236 12.4551 14.1944 12.1402H14.1947Z" fill="white"/>
    <path d="M8.58461 9.09988C8.78407 8.49188 9.18672 7.95967 9.73328 7.58185C9.74633 7.5726 9.76012 7.56406 9.77354 7.55517C9.52114 7.37479 9.24339 7.22537 8.94587 7.11224C9.37127 6.84186 9.69301 6.45088 9.86376 5.99693C10.0345 5.54298 10.045 5.04954 9.89396 4.58918C9.74297 4.12919 9.43837 3.72646 9.02454 3.44043C8.61071 3.1544 8.11038 3 7.59625 3C7.08213 3 6.58143 3.1544 6.16797 3.44043C5.75451 3.72646 5.44954 4.12919 5.29854 4.58918C5.14755 5.04918 5.15799 5.54262 5.32874 5.99693C5.4995 6.45088 5.82124 6.84186 6.24663 7.11224C5.58375 7.36377 5.01594 7.79459 4.6159 8.34994C4.21586 8.90492 4.00149 9.55881 4 10.2284V11H8.6409C8.63568 10.9865 8.62972 10.9733 8.62487 10.9598C8.39931 10.3596 8.38552 9.70788 8.58498 9.09988H8.58461Z" fill="white"/>
    <path d="M6.79528 16.2654C6.79709 15.3806 7.07274 14.5165 7.5877 13.7834C7.95232 13.264 8.42552 12.8278 8.97318 12.4988C8.94739 12.4788 8.92125 12.4593 8.89473 12.4404C8.49198 12.1544 8.00425 12 7.50309 12C7.00192 12 6.51455 12.1544 6.1118 12.4404C5.70905 12.7264 5.41198 13.1291 5.2649 13.5891C5.11782 14.0491 5.12799 14.5425 5.29432 14.9968C5.46065 15.4507 5.77406 15.8417 6.18843 16.1121C5.54272 16.3636 4.98962 16.7944 4.59995 17.3497C4.21027 17.9047 4.00145 18.5589 4 19.2284V20H11V19.2284C11 18.5592 10.9949 18.2334 10.6063 17.6784C10.5911 17.6564 10.5711 17.6411 10.5428 17.6115H6.79492V16.2657L6.79528 16.2654Z" fill="white"/>
    <path d="M16.4153 9.09961C16.2156 8.49164 15.8132 7.95944 15.2665 7.58164C15.2532 7.57239 15.2396 7.56386 15.2263 7.55496C15.4788 7.3746 15.7564 7.22519 16.0539 7.11206C15.6283 6.84169 15.3067 6.45073 15.1362 5.9968C14.9657 5.54287 14.9549 5.04945 15.1059 4.58911C15.2569 4.12914 15.5618 3.72643 15.9753 3.44041C16.3887 3.15439 16.8896 3 17.4038 3C17.918 3 18.4186 3.15439 18.8324 3.44041C19.2462 3.72643 19.5508 4.12914 19.7017 4.58911C19.8527 5.04909 19.8424 5.54251 19.6715 5.9968C19.5009 6.45073 19.179 6.84169 18.7538 7.11206C19.4168 7.36357 19.9841 7.79438 20.3843 8.3497C20.7844 8.90466 20.9989 9.55888 21 10.2284V11H16.3592C16.3643 10.9865 16.3702 10.9733 16.3754 10.9598C16.6009 10.3597 16.615 9.70793 16.4153 9.09996V9.09961Z" fill="white"/>
    <path d="M18.205 16.2654C18.2032 15.3806 17.9274 14.5165 17.4124 13.7834C17.0478 13.264 16.5746 12.8278 16.027 12.4988C16.0525 12.4788 16.0787 12.4593 16.1054 12.4404C16.5081 12.1544 16.996 12 17.4969 12C17.9978 12 18.4854 12.1544 18.8885 12.4404C19.2916 12.7264 19.5883 13.1291 19.7353 13.5891C19.8824 14.0491 19.8723 14.5425 19.7059 14.9968C19.5397 15.4507 19.2262 15.8417 18.8119 16.1121C19.4577 16.3636 20.0104 16.7944 20.4002 17.3497C20.79 17.9047 20.9989 18.5589 21 19.2284V20H14V19.2284C14 18.5592 14.005 18.2334 14.3937 17.6784C14.4092 17.6564 14.429 17.6411 14.4574 17.6115H18.2053V16.2657L18.205 16.2654Z" fill="white"/>
</svg>
