<svg width="26" height="26" viewBox="0 0 26 26" fill="none" xmlns="http://www.w3.org/2000/svg">
    <path opacity="0.3" d="M12.9996 2.59961C7.25361 2.59961 2.59961 7.25361 2.59961 12.9996C2.59961 18.7456 7.25361 23.3996 12.9996 23.3996C18.7456 23.3996 23.3996 18.7456 23.3996 12.9996C23.3996 7.25361 18.7456 2.59961 12.9996 2.59961ZM14.2996 19.4996H11.6996V16.8996H14.2996V19.4996ZM14.2996 14.2996H11.6996V6.49961H14.2996V14.2996Z" fill="#DC0000"/>
    <path d="M12.987 0C5.811 0 0 5.824 0 13C0 20.176 5.811 26 12.987 26C20.176 26 26 20.176 26 13C26 5.824 20.176 0 12.987 0ZM13 23.4C7.254 23.4 2.6 18.746 2.6 13C2.6 7.254 7.254 2.6 13 2.6C18.746 2.6 23.4 7.254 23.4 13C23.4 18.746 18.746 23.4 13 23.4ZM11.7 16.9H14.3V19.5H11.7V16.9ZM11.7 6.5H14.3V14.3H11.7V6.5Z" fill="#DC0000"/>
</svg>
