<svg width="146" height="44" viewBox="0 0 146 44" fill="none" xmlns="http://www.w3.org/2000/svg">
    <path d="M64.3373 32.2603C61.509 39.0524 55.7133 43.6223 47.1964 43.6223H31.2192L34.5366 35.6564H51.1316C52.9519 35.6564 53.7758 34.9011 54.1593 33.9801H46.0074C37.4922 33.9801 35.4827 29.4521 38.3111 22.66C40.9117 16.4121 46.9184 11.3398 55.4336 11.3398H73.0485L64.3373 32.2603ZM49.6881 26.0142H57.4766L60.2698 19.3058H52.4813C50.0063 19.3058 48.4372 21.1512 47.8093 22.66C47.1813 24.1688 47.2131 26.0142 49.6881 26.0142Z" fill="white"/>
    <path d="M87.5554 11.3398H95.8529C104.368 11.3398 106.152 16.4121 103.549 22.66C100.721 29.4521 94.9419 33.9801 86.4267 33.9801H78.1292C69.6139 33.9801 67.6045 29.4521 70.4328 22.66C73.0334 16.4121 79.0401 11.3398 87.5554 11.3398ZM79.931 22.66C79.303 24.1688 79.3349 26.0142 81.8099 26.0142H89.379C91.854 26.0142 93.4231 24.1688 94.051 22.66C94.679 21.1512 94.6472 19.3058 92.1722 19.3058H84.6031C82.1281 19.3058 80.559 21.1512 79.931 22.66Z" fill="white"/>
    <path d="M123.628 2.53516L110.399 33.9787H100.936L114.165 2.53516H123.628Z" fill="white"/>
    <path d="M146 2.53488L143.033 9.66188H134.735C133.097 9.66188 132.011 9.91306 131.503 11.1288L131.416 11.3381H142.334L139.017 19.3041H128.099L121.99 33.9784H112.527L120.906 13.8533C123.735 7.06126 129.514 2.5332 138.029 2.5332H145.998L146 2.53488Z" fill="white"/>
    <path d="M41.4876 0L27.2219 33.9788H14.2289L0 0H12.0101L20.7078 20.8368L29.4776 0H41.4876Z" fill="white"/>
</svg>
