<svg width="30" height="44" viewBox="0 0 30 44" fill="none" xmlns="http://www.w3.org/2000/svg">
    <path d="M22.2537 42.4758L1.24327 24.3617C-0.414453 22.9325 -0.414394 20.6154 1.24327 19.1862C2.90093 17.7571 5.58853 17.757 7.24625 19.1862L28.2567 37.3003C29.9144 38.7295 29.9144 41.0466 28.2567 42.4758C26.599 43.9049 23.9114 43.9049 22.2537 42.4758Z" fill="white"/>
    <path d="M7.24629 24.3614L28.2567 6.24733C29.9145 4.81813 29.9144 2.50103 28.2567 1.07188C26.5991 -0.357268 23.9115 -0.357319 22.2537 1.07188L1.24327 19.1862C-0.414394 20.6154 -0.414453 22.9325 1.24327 24.3617C2.90093 25.7908 5.58861 25.7906 7.24629 24.3614Z" fill="white"/>
</svg>
