<svg width="19" height="33" viewBox="0 0 19 33" fill="none" xmlns="http://www.w3.org/2000/svg">
  <path d="M14.0116 0.794041L0.782796 14.213C-0.260952 15.2717 -0.260916 16.9882 0.782796 18.0469C1.82651 19.1057 3.51869 19.1057 4.56244 18.0469L17.7912 4.62802C18.8349 3.5693 18.8349 1.85276 17.7912 0.794042C16.7475 -0.264674 15.0553 -0.264683 14.0116 0.794041Z" fill="#444444"/>
  <path d="M4.56247 14.2132L17.7912 27.6321C18.835 28.6909 18.8349 30.4074 17.7912 31.4661C16.7475 32.5248 15.0553 32.5249 14.0116 31.4661L0.782796 18.0469C-0.260916 16.9882 -0.260952 15.2717 0.782796 14.213C1.82651 13.1543 3.51875 13.1545 4.56247 14.2132Z" fill="#444444"/>
</svg>
